<svg width="204" height="200" viewBox="0 0 186 182" fill="none" xmlns="http://www.w3.org/2000/svg">
<path d="M185.284 141.413L176.918 68.1733C175.387 57.4836 170.178 47.6617 162.188 40.3977C154.198 33.1336 143.925 28.8818 133.138 28.3738V11.6082C133.138 8.52951 131.915 5.57692 129.738 3.39996C127.561 1.223 124.609 0 121.53 0C118.451 0 115.499 1.223 113.322 3.39996C111.145 5.57692 109.922 8.52951 109.922 11.6082V28.3572H65.7113V12.3047C65.7113 9.22601 64.4883 6.27342 62.3114 4.09646C60.1344 1.9195 57.1818 0.696492 54.1031 0.696492C51.0244 0.696492 48.0718 1.9195 45.8949 4.09646C43.7179 6.27342 42.4949 9.22601 42.4949 12.3047V29.717C33.6083 31.9286 25.574 36.7185 19.4026 43.4844C13.2313 50.2504 9.19841 58.6901 7.81126 67.7421L0.191305 141.786C-0.330874 146.865 0.218834 151.997 1.80488 156.85C3.39092 161.703 5.97798 166.169 9.39873 169.96C12.8195 173.75 16.9977 176.78 21.6633 178.854C26.3288 180.928 31.3778 182 36.4835 182H149.066C154.201 181.995 159.277 180.907 163.962 178.806C168.647 176.705 172.835 173.638 176.254 169.807C179.672 165.976 182.244 161.467 183.8 156.574C185.356 151.681 185.862 146.515 185.284 141.413ZM103.115 60.1056C103.397 58.0907 103.678 56.0842 103.944 54.0693C104.01 53.547 104.118 53.3231 104.375 53.3231C104.577 53.3567 104.769 53.433 104.939 53.547C108.139 55.396 111.34 57.2367 114.499 59.1438C116.942 60.6197 119.352 62.1509 121.729 63.7373C124.598 65.6444 127.414 67.615 130.178 69.6492C132.666 71.4651 135.153 73.3472 137.549 75.2626C139.481 76.78 141.355 78.3636 143.213 79.9722C144.108 80.7433 144.954 81.5642 145.824 82.3685L125.203 90.0962C124.045 90.5348 122.795 90.6758 121.568 90.5063C120.341 90.3369 119.176 89.8623 118.18 89.1261L116.986 88.2389C116.678 88.0113 116.318 87.8647 115.938 87.8126C115.558 87.7605 115.172 87.8046 114.814 87.9407C114.456 88.0769 114.137 88.3008 113.888 88.592C113.639 88.8831 113.467 89.2321 113.388 89.607L112.252 94.9882L112.02 96.091L111.73 97.4508C111.534 98.3848 111.676 99.358 112.132 100.197C112.588 101.035 113.327 101.684 114.217 102.028C114.541 102.155 114.812 102.388 114.987 102.689C115.162 102.99 115.229 103.342 115.179 103.686L113.637 112.384C113.582 112.704 113.454 113.007 113.264 113.27C113.074 113.533 112.826 113.749 112.539 113.901C112.253 114.053 111.935 114.137 111.611 114.148C111.286 114.158 110.964 114.093 110.668 113.959L103.206 110.643C100.871 109.606 98.9506 107.819 97.7486 105.566C96.5467 103.312 96.1327 100.721 96.5726 98.2054L102.758 62.734L103.115 60.1056ZM116.53 106.837L116.273 108.047L115.627 107.177L116.53 106.837ZM83.8201 134.265C83.3779 137.427 82.9357 140.589 82.4935 143.751C82.0734 146.78 81.6532 149.807 81.2331 152.83C81.0673 153.999 80.8932 155.16 80.7025 156.313C80.5864 157.001 80.1884 157.142 79.5914 156.819C76.7557 155.16 73.8785 153.61 71.0843 151.918C68.688 150.475 66.3581 148.933 64.0364 147.391C61.5489 145.733 59.0615 144.074 56.6238 142.358C54.7499 141.031 52.934 139.622 51.1099 138.212C49.2857 136.803 47.2128 135.219 45.3058 133.668C44.0123 132.624 42.8183 131.496 41.5248 130.402C40.2313 129.307 38.8881 128.096 37.5946 126.911C37.37 126.691 37.2367 126.395 37.2215 126.082C37.2215 123.296 37.2878 120.501 37.4371 117.724C37.6195 114.482 37.9014 111.256 38.175 108.023C38.3906 105.444 38.5896 102.857 38.9461 100.287C39.5431 96.0468 40.2037 91.8126 40.9278 87.5839C41.5663 83.9024 42.2545 80.221 43.0587 76.5727C43.805 73.2063 44.717 69.8731 45.6291 66.5399C45.7829 66.1098 46.0743 65.7425 46.4583 65.4951C47.6191 64.7323 48.8297 64.0524 50.0154 63.3393L50.0983 63.472C51.4083 62.7009 52.6935 61.88 54.0285 61.1669C56.9223 59.6247 59.8326 58.0327 62.7761 56.648C68.5526 53.9615 74.3567 51.3497 80.1884 48.8125C83.107 47.5605 86.1335 46.5738 89.1184 45.4959C91.3157 44.6667 93.5378 43.9785 95.7517 43.2654C96.6638 42.9752 96.7467 43.0747 96.5808 44.0365C95.9507 48.4587 95.315 52.8947 94.6738 57.3445C94.2509 60.3212 93.8446 63.2896 93.4135 66.2745C93.3906 66.469 93.3316 66.6574 93.2393 66.8301L88.7868 97.1192C88.655 98.0019 88.3118 98.8398 87.7864 99.5613C87.2611 100.283 86.5692 100.867 85.7695 101.263C84.9699 101.66 84.0863 101.857 83.194 101.839C82.3016 101.82 81.4269 101.587 80.6444 101.157L78.9861 100.187C77.5114 99.3436 76.3068 98.0985 75.5126 96.5967C74.7184 95.095 74.3674 93.3984 74.5004 91.7048L75.3295 81.2159C75.3794 80.5495 75.2513 79.8817 74.9583 79.281C74.6654 78.6802 74.2181 78.1681 73.6623 77.797C73.1064 77.4259 72.462 77.2091 71.7949 77.1688C71.1277 77.1285 70.4619 77.2661 69.8654 77.5677L65.7196 79.6737C65.3096 80.0259 65.0415 80.515 64.9651 81.0501C64.2271 84.6404 63.4643 88.2306 62.8756 91.8292C62.3449 95.1458 62.0464 98.4044 61.6402 101.704C61.584 102.207 61.6392 102.715 61.8018 103.194C61.9645 103.673 62.2306 104.11 62.5813 104.474C62.932 104.838 63.3586 105.12 63.8308 105.301C64.303 105.481 64.8092 105.556 65.3133 105.519L70.4292 105.154L75.4042 108.288C75.7782 108.522 76.0943 108.838 76.3291 109.212C76.5638 109.585 76.711 110.007 76.7596 110.446C76.8083 110.884 76.7571 111.328 76.61 111.744C76.4628 112.16 76.2235 112.538 75.91 112.848L68.8207 119.88C68.6057 120.093 68.4397 120.351 68.3344 120.635C68.229 120.919 68.1866 121.223 68.2103 121.525C68.234 121.827 68.3231 122.12 68.4714 122.385C68.6197 122.649 68.8238 122.878 69.0694 123.055L74.8735 127.201C77.6014 129.05 80.3791 130.824 83.1651 132.615C83.4319 132.789 83.6382 133.04 83.7555 133.336C83.8729 133.632 83.8955 133.956 83.8201 134.265ZM146.629 99.6398V99.6979C146.38 102.616 146.115 105.502 145.8 108.445C145.426 111.613 145.045 114.789 144.514 117.939C143.713 122.765 142.828 127.577 141.861 132.375C141.198 135.692 140.335 138.892 139.548 142.151C139.439 142.798 139.247 143.427 138.976 144.025C138.672 144.561 138.246 145.019 137.732 145.36C136.414 146.255 135.037 147.076 133.652 147.847C131.861 148.875 130.062 149.903 128.221 150.84C124.698 152.648 121.19 154.497 117.583 156.13C113.811 157.847 109.939 159.347 106.1 160.915C103.836 161.827 101.572 162.722 99.2756 163.568C97.3354 164.289 95.3537 164.911 93.3969 165.591C92.1614 166.022 90.9094 166.486 89.7071 166.926C89.4393 167.031 89.1615 167.109 88.878 167.158C88.0488 167.282 87.8581 167.042 87.9991 166.196C88.3141 164.239 88.5878 162.266 88.8697 160.293C89.2262 157.731 89.5662 155.16 89.931 152.59C90.1411 151.114 90.3511 149.641 90.5612 148.17L91.8049 136.371C92.0034 134.439 91.6759 132.489 90.8571 130.727C90.0382 128.965 88.7586 127.458 87.1533 126.364L78.5301 120.51L86.3242 113.097L105.304 120.004C107.04 120.632 108.502 121.848 109.435 123.442C110.368 125.035 110.713 126.905 110.411 128.727L109.822 132.35C109.768 132.673 109.804 133.006 109.926 133.31C110.049 133.614 110.253 133.878 110.517 134.073C110.781 134.268 111.093 134.386 111.42 134.414C111.747 134.442 112.075 134.379 112.368 134.232C114.391 133.221 116.389 132.176 118.413 131.189C118.749 131.043 119.043 130.815 119.268 130.525C119.492 130.235 119.64 129.893 119.698 129.531C120.427 125.783 121.265 122.069 121.887 118.296C122.434 114.979 122.716 111.605 123.139 108.255C123.371 106.339 123.595 104.416 123.752 102.451L123.827 101.622L141.629 95.693C142.228 95.4988 142.866 95.4554 143.486 95.5665C144.106 95.6777 144.689 95.94 145.184 96.3303C145.678 96.7206 146.069 97.2268 146.321 97.8041C146.573 98.3814 146.679 99.0119 146.629 99.6398Z" fill="#8093FF" fill-opacity="0.5"/>
</svg>
