<svg width="179" height="63" viewBox="0 0 179 63" fill="none" xmlns="http://www.w3.org/2000/svg">
<path d="M5.15625 34.3906C4.45312 34.3646 3.85417 34.1172 3.35938 33.6484C2.86458 33.1536 2.60417 32.5547 2.57812 31.8516V22.125C2.60417 20.276 2.86458 18.5312 3.35938 16.8906C3.88021 15.25 4.72656 13.8698 5.89844 12.75C7.09635 11.6042 8.60677 10.9792 10.4297 10.875H25.5078C26.2109 10.901 26.7969 11.1615 27.2656 11.6562C27.7604 12.125 28.0208 12.7109 28.0469 13.4141C28.0469 14.1432 27.7995 14.7682 27.3047 15.2891C26.8359 15.8099 26.237 16.0833 25.5078 16.1094H11.7578C10.7682 16.1615 9.94792 16.5391 9.29688 17.2422C8.64583 17.9453 8.22917 18.7526 8.04688 19.6641C7.89062 20.5495 7.82552 21.526 7.85156 22.5938V31.8516C7.82552 32.5807 7.55208 33.1927 7.03125 33.6875C6.51042 34.1562 5.88542 34.3906 5.15625 34.3906ZM9.6875 24.1172C9.6875 23.388 9.94792 22.776 10.4688 22.2812C10.9635 21.7604 11.5755 21.5 12.3047 21.5H25.5078C26.237 21.5 26.849 21.7604 27.3438 22.2812C27.8646 22.776 28.125 23.388 28.125 24.1172C28.125 24.8464 27.8776 25.4714 27.3828 25.9922C26.862 26.487 26.237 26.7344 25.5078 26.7344H12.3047C11.5755 26.7344 10.9505 26.487 10.4297 25.9922C9.9349 25.4714 9.6875 24.8464 9.6875 24.1172ZM44.1406 34.8203C42.7865 34.8203 41.4453 34.6641 40.1172 34.3516C38.8151 34.0391 37.5651 33.5833 36.3672 32.9844C35.1693 32.3594 34.1146 31.5391 33.2031 30.5234C32.2917 29.5078 31.7969 28.2969 31.7188 26.8906V25.25V12.7891C31.7188 12.0599 31.9792 11.4609 32.5 10.9922C33.0469 10.4974 33.6849 10.25 34.4141 10.25C35.9766 10.3802 36.8229 11.2266 36.9531 12.7891V25.6797C37.0052 26.487 37.3047 27.1641 37.8516 27.7109C38.4245 28.2318 39.0495 28.6484 39.7266 28.9609C40.4297 29.2734 41.1458 29.5078 41.875 29.6641C42.6302 29.8203 43.3854 29.8984 44.1406 29.8984C44.8958 29.8984 45.638 29.8203 46.3672 29.6641C47.1224 29.5078 47.8385 29.2734 48.5156 28.9609C49.2188 28.6484 49.8438 28.2318 50.3906 27.7109C50.9635 27.1641 51.276 26.487 51.3281 25.6797V12.7891C51.3281 12.0599 51.5885 11.4609 52.1094 10.9922C52.6562 10.4974 53.2943 10.25 54.0234 10.25C55.5859 10.3802 56.4453 11.2266 56.6016 12.7891V25.25V26.8906C56.5234 28.2969 56.0156 29.5078 55.0781 30.5234C54.1667 31.5391 53.112 32.3594 51.9141 32.9844C50.7161 33.5833 49.4531 34.0391 48.125 34.3516C46.8229 34.6641 45.4948 34.8203 44.1406 34.8203ZM61.0547 13.4922C61.0547 12.763 61.3021 12.151 61.7969 11.6562C62.3177 11.1354 62.9427 10.875 63.6719 10.875H86.4062C87.1354 10.875 87.7604 11.1224 88.2812 11.6172C88.776 12.138 89.0234 12.763 89.0234 13.4922C89.0234 14.2214 88.763 14.8464 88.2422 15.3672C87.7474 15.862 87.1354 16.1094 86.4062 16.1094H77.6953V31.9297C77.5391 33.4922 76.6797 34.3385 75.1172 34.4688C74.388 34.4688 73.75 34.2344 73.2031 33.7656C72.6823 33.2708 72.4219 32.6589 72.4219 31.9297V16.1094H63.6719C62.9427 16.1094 62.3307 15.849 61.8359 15.3281C61.3151 14.8333 61.0547 14.2214 61.0547 13.4922ZM118.398 13.4922C118.398 14.2214 118.138 14.8333 117.617 15.3281C117.122 15.849 116.51 16.1094 115.781 16.1094H100.156C99.6615 16.1354 99.2448 16.2526 98.9062 16.4609C98.5938 16.6432 98.3594 16.8646 98.2031 17.125C98.0469 17.3594 97.9688 17.6068 97.9688 17.8672C97.9688 18.1276 98.0469 18.388 98.2031 18.6484C98.3594 18.8828 98.5938 19.1042 98.9062 19.3125C99.2448 19.4948 99.6615 19.599 100.156 19.625H111.25C113.073 19.6771 114.57 20.1068 115.742 20.9141C116.94 21.6953 117.786 22.6068 118.281 23.6484C118.802 24.6641 119.062 25.7057 119.062 26.7734C119.062 27.8151 118.802 28.8568 118.281 29.8984C117.76 30.9141 116.914 31.8255 115.742 32.6328C114.57 33.4141 113.073 33.8047 111.25 33.8047H111.016C110.859 33.8307 110.703 33.8438 110.547 33.8438H95.7812C95.0521 33.8438 94.4271 33.5964 93.9062 33.1016C93.4115 32.5807 93.1641 31.9557 93.1641 31.2266C93.1641 30.4974 93.4245 29.8854 93.9453 29.3906C94.4401 28.8698 95.0521 28.6094 95.7812 28.6094H111.484C111.979 28.6354 112.383 28.5443 112.695 28.3359C113.034 28.1276 113.281 27.8932 113.438 27.6328C113.594 27.3464 113.672 27.0599 113.672 26.7734C113.672 26.5911 113.594 26.3438 113.438 26.0312C113.281 25.6927 113.034 25.4193 112.695 25.2109C112.383 25.0026 111.979 24.8854 111.484 24.8594H100.391C98.5677 24.8073 97.0573 24.3906 95.8594 23.6094C94.6875 22.8281 93.8411 21.9427 93.3203 20.9531C92.8255 19.9375 92.5781 18.9089 92.5781 17.8672C92.5781 16.8516 92.8385 15.849 93.3594 14.8594C93.8802 13.8438 94.7266 12.9453 95.8984 12.1641C97.0703 11.3828 98.5677 10.9661 100.391 10.9141H100.625C100.781 10.888 100.938 10.875 101.094 10.875H115.781C116.51 10.875 117.122 11.1354 117.617 11.6562C118.138 12.151 118.398 12.763 118.398 13.4922ZM132.227 27.8672C132.227 27.138 132.474 26.526 132.969 26.0312C133.49 25.5104 134.115 25.25 134.844 25.25H140.82L139.805 22.3594C139.388 21.2917 138.971 20.2891 138.555 19.3516C138.164 18.388 137.708 17.5156 137.188 16.7344C136.719 15.9531 136.185 15.5365 135.586 15.4844C134.961 15.5365 134.401 15.9531 133.906 16.7344C133.411 17.5156 132.956 18.388 132.539 19.3516C132.148 20.2891 131.745 21.2917 131.328 22.3594L127.617 32.5156C127.357 33.0625 127.018 33.5182 126.602 33.8828C126.211 34.2214 125.612 34.3906 124.805 34.3906C124.049 34.3906 123.424 34.1302 122.93 33.6094C122.461 33.0885 122.253 32.4635 122.305 31.7344C122.331 31.3958 122.409 31.0833 122.539 30.7969L126.836 19.7031C128.034 16.7865 129.232 14.4297 130.43 12.6328C131.602 10.862 133.32 9.96354 135.586 9.9375C137.826 9.96354 139.531 10.862 140.703 12.6328C141.901 14.3776 143.099 16.7344 144.297 19.7031L148.594 30.7969C148.724 31.0833 148.802 31.3958 148.828 31.7344C148.88 32.4635 148.659 33.0885 148.164 33.6094C147.695 34.1302 147.083 34.3906 146.328 34.3906C145.469 34.3906 144.831 34.2214 144.414 33.8828C144.023 33.5182 143.698 33.0625 143.438 32.5156L142.695 30.4844H134.844C134.115 30.4844 133.503 30.224 133.008 29.7031C132.487 29.2083 132.227 28.5964 132.227 27.8672ZM155.352 10.25C156.081 10.25 156.706 10.4974 157.227 10.9922C157.747 11.4609 158.021 12.0599 158.047 12.7891V22.2031C158.021 23.2708 158.086 24.2604 158.242 25.1719C158.424 26.0573 158.841 26.8516 159.492 27.5547C160.143 28.2578 160.964 28.6354 161.953 28.6875H174.453C175.182 28.7135 175.781 28.987 176.25 29.5078C176.745 30.0286 176.992 30.6536 176.992 31.3828C176.966 32.0859 176.706 32.6849 176.211 33.1797C175.742 33.6484 175.156 33.8958 174.453 33.9219H160.625C158.802 33.8177 157.292 33.2057 156.094 32.0859C154.922 30.9401 154.076 29.5469 153.555 27.9062C153.06 26.2656 152.799 24.5208 152.773 22.6719V12.7891C152.799 12.0859 153.06 11.5 153.555 11.0312C154.049 10.5365 154.648 10.276 155.352 10.25Z" fill="black"/>
<path d="M58.9941 57.335C58.873 58.5459 58.207 59.2018 56.9961 59.3027C56.431 59.3027 55.9365 59.1211 55.5127 58.7578C55.109 58.3743 54.9072 57.9001 54.9072 57.335V43.0459C54.9274 42.4808 55.1393 42.0166 55.543 41.6533C55.9466 41.2699 56.431 41.0781 56.9961 41.0781H69.7109C71.487 41.1387 72.8291 41.5322 73.7373 42.2588C74.6455 42.9652 75.3014 43.7725 75.7051 44.6807C76.1087 45.5889 76.3105 46.5072 76.3105 47.4355C76.3105 48.4043 76.1087 49.3428 75.7051 50.251C75.3216 51.1592 74.6657 51.9766 73.7373 52.7031C72.8291 53.4095 71.6686 53.7526 70.2559 53.7324H62.627C62.0618 53.7324 61.5876 53.5306 61.2041 53.127C60.8005 52.7435 60.5986 52.2692 60.5986 51.7041C60.5986 51.139 60.7904 50.6647 61.1738 50.2812C61.5775 49.8776 62.0618 49.6758 62.627 49.6758H70.4375C70.821 49.6758 71.1338 49.5547 71.376 49.3125C71.6383 49.0501 71.8301 48.7575 71.9512 48.4346C72.0723 48.0915 72.1328 47.7484 72.1328 47.4053C72.1328 47.0824 72.0723 46.7594 71.9512 46.4365C71.8301 46.0934 71.6383 45.8008 71.376 45.5586C71.1338 45.2962 70.821 45.1549 70.4375 45.1348H59.7812C59.2565 45.1549 58.9941 45.4173 58.9941 45.9219V57.335ZM80.1553 49.0098C80.5387 48.041 81.1846 47.1732 82.0928 46.4062C83.0212 45.6191 84.1917 45.2155 85.6045 45.1953H96.9873C97.5524 45.1953 98.0267 45.3971 98.4102 45.8008C98.8138 46.1842 99.0156 46.6585 99.0156 47.2236C99.0156 47.7887 98.8138 48.2731 98.4102 48.6768C98.0267 49.0602 97.5524 49.252 96.9873 49.252H85.4834C85.0999 49.252 84.7669 49.4134 84.4844 49.7363C84.2018 50.0391 83.9798 50.4023 83.8184 50.8262C83.6771 51.25 83.6064 51.6536 83.6064 52.0371V57.335C83.4854 58.5459 82.8193 59.2018 81.6084 59.3027C81.0433 59.3027 80.5488 59.1211 80.125 58.7578C79.7214 58.3743 79.5195 57.9001 79.5195 57.335V52.0674H79.5498C79.5498 51.0179 79.7516 49.9987 80.1553 49.0098ZM108.279 58.9395C106.503 58.8789 105.161 58.4652 104.253 57.6982C103.345 56.9111 102.689 56.0332 102.285 55.0645C101.882 54.0755 101.68 53.0765 101.68 52.0674C101.68 51.0179 101.871 50.0088 102.255 49.04C102.659 48.0511 103.314 47.1732 104.223 46.4062C105.151 45.6191 106.322 45.2155 107.734 45.1953H117.543C118.956 45.2155 120.116 45.6191 121.024 46.4062C121.953 47.1732 122.609 48.0511 122.992 49.04C123.396 50.0088 123.598 51.0179 123.598 52.0674C123.598 53.0765 123.396 54.0755 122.992 55.0645C122.589 56.0332 121.933 56.9111 121.024 57.6982C120.116 58.4652 118.774 58.8789 116.998 58.9395H108.279ZM107.613 49.252C107.23 49.252 106.897 49.4134 106.614 49.7363C106.332 50.0391 106.12 50.4023 105.979 50.8262C105.857 51.2298 105.797 51.6335 105.797 52.0371C105.797 52.4609 105.857 52.8848 105.979 53.3086C106.12 53.7122 106.332 54.0755 106.614 54.3984C106.897 54.7012 107.23 54.8626 107.613 54.8828H117.664C118.048 54.8626 118.381 54.7012 118.663 54.3984C118.946 54.0755 119.147 53.7122 119.269 53.3086C119.41 52.8848 119.48 52.4609 119.48 52.0371C119.48 51.6335 119.41 51.2298 119.269 50.8262C119.147 50.4023 118.946 50.0391 118.663 49.7363C118.381 49.4134 118.048 49.252 117.664 49.252H107.613Z" fill="black"/>
</svg>
