<svg width="179" height="178" viewBox="0 0 179 178" fill="none" xmlns="http://www.w3.org/2000/svg">
<path d="M5.15625 148.391C4.45312 148.365 3.85417 148.117 3.35938 147.648C2.86458 147.154 2.60417 146.555 2.57812 145.852V136.125C2.60417 134.276 2.86458 132.531 3.35938 130.891C3.88021 129.25 4.72656 127.87 5.89844 126.75C7.09635 125.604 8.60677 124.979 10.4297 124.875H25.5078C26.2109 124.901 26.7969 125.161 27.2656 125.656C27.7604 126.125 28.0208 126.711 28.0469 127.414C28.0469 128.143 27.7995 128.768 27.3047 129.289C26.8359 129.81 26.237 130.083 25.5078 130.109H11.7578C10.7682 130.161 9.94792 130.539 9.29688 131.242C8.64583 131.945 8.22917 132.753 8.04688 133.664C7.89062 134.549 7.82552 135.526 7.85156 136.594V145.852C7.82552 146.581 7.55208 147.193 7.03125 147.688C6.51042 148.156 5.88542 148.391 5.15625 148.391ZM9.6875 138.117C9.6875 137.388 9.94792 136.776 10.4688 136.281C10.9635 135.76 11.5755 135.5 12.3047 135.5H25.5078C26.237 135.5 26.849 135.76 27.3438 136.281C27.8646 136.776 28.125 137.388 28.125 138.117C28.125 138.846 27.8776 139.471 27.3828 139.992C26.862 140.487 26.237 140.734 25.5078 140.734H12.3047C11.5755 140.734 10.9505 140.487 10.4297 139.992C9.9349 139.471 9.6875 138.846 9.6875 138.117ZM44.1406 148.82C42.7865 148.82 41.4453 148.664 40.1172 148.352C38.8151 148.039 37.5651 147.583 36.3672 146.984C35.1693 146.359 34.1146 145.539 33.2031 144.523C32.2917 143.508 31.7969 142.297 31.7188 140.891V139.25V126.789C31.7188 126.06 31.9792 125.461 32.5 124.992C33.0469 124.497 33.6849 124.25 34.4141 124.25C35.9766 124.38 36.8229 125.227 36.9531 126.789V139.68C37.0052 140.487 37.3047 141.164 37.8516 141.711C38.4245 142.232 39.0495 142.648 39.7266 142.961C40.4297 143.273 41.1458 143.508 41.875 143.664C42.6302 143.82 43.3854 143.898 44.1406 143.898C44.8958 143.898 45.638 143.82 46.3672 143.664C47.1224 143.508 47.8385 143.273 48.5156 142.961C49.2188 142.648 49.8438 142.232 50.3906 141.711C50.9635 141.164 51.276 140.487 51.3281 139.68V126.789C51.3281 126.06 51.5885 125.461 52.1094 124.992C52.6562 124.497 53.2943 124.25 54.0234 124.25C55.5859 124.38 56.4453 125.227 56.6016 126.789V139.25V140.891C56.5234 142.297 56.0156 143.508 55.0781 144.523C54.1667 145.539 53.112 146.359 51.9141 146.984C50.7161 147.583 49.4531 148.039 48.125 148.352C46.8229 148.664 45.4948 148.82 44.1406 148.82ZM61.0547 127.492C61.0547 126.763 61.3021 126.151 61.7969 125.656C62.3177 125.135 62.9427 124.875 63.6719 124.875H86.4062C87.1354 124.875 87.7604 125.122 88.2812 125.617C88.776 126.138 89.0234 126.763 89.0234 127.492C89.0234 128.221 88.763 128.846 88.2422 129.367C87.7474 129.862 87.1354 130.109 86.4062 130.109H77.6953V145.93C77.5391 147.492 76.6797 148.339 75.1172 148.469C74.388 148.469 73.75 148.234 73.2031 147.766C72.6823 147.271 72.4219 146.659 72.4219 145.93V130.109H63.6719C62.9427 130.109 62.3307 129.849 61.8359 129.328C61.3151 128.833 61.0547 128.221 61.0547 127.492ZM118.398 127.492C118.398 128.221 118.138 128.833 117.617 129.328C117.122 129.849 116.51 130.109 115.781 130.109H100.156C99.6615 130.135 99.2448 130.253 98.9062 130.461C98.5938 130.643 98.3594 130.865 98.2031 131.125C98.0469 131.359 97.9688 131.607 97.9688 131.867C97.9688 132.128 98.0469 132.388 98.2031 132.648C98.3594 132.883 98.5938 133.104 98.9062 133.312C99.2448 133.495 99.6615 133.599 100.156 133.625H111.25C113.073 133.677 114.57 134.107 115.742 134.914C116.94 135.695 117.786 136.607 118.281 137.648C118.802 138.664 119.062 139.706 119.062 140.773C119.062 141.815 118.802 142.857 118.281 143.898C117.76 144.914 116.914 145.826 115.742 146.633C114.57 147.414 113.073 147.805 111.25 147.805H111.016C110.859 147.831 110.703 147.844 110.547 147.844H95.7812C95.0521 147.844 94.4271 147.596 93.9062 147.102C93.4115 146.581 93.1641 145.956 93.1641 145.227C93.1641 144.497 93.4245 143.885 93.9453 143.391C94.4401 142.87 95.0521 142.609 95.7812 142.609H111.484C111.979 142.635 112.383 142.544 112.695 142.336C113.034 142.128 113.281 141.893 113.438 141.633C113.594 141.346 113.672 141.06 113.672 140.773C113.672 140.591 113.594 140.344 113.438 140.031C113.281 139.693 113.034 139.419 112.695 139.211C112.383 139.003 111.979 138.885 111.484 138.859H100.391C98.5677 138.807 97.0573 138.391 95.8594 137.609C94.6875 136.828 93.8411 135.943 93.3203 134.953C92.8255 133.938 92.5781 132.909 92.5781 131.867C92.5781 130.852 92.8385 129.849 93.3594 128.859C93.8802 127.844 94.7266 126.945 95.8984 126.164C97.0703 125.383 98.5677 124.966 100.391 124.914H100.625C100.781 124.888 100.938 124.875 101.094 124.875H115.781C116.51 124.875 117.122 125.135 117.617 125.656C118.138 126.151 118.398 126.763 118.398 127.492ZM132.227 141.867C132.227 141.138 132.474 140.526 132.969 140.031C133.49 139.51 134.115 139.25 134.844 139.25H140.82L139.805 136.359C139.388 135.292 138.971 134.289 138.555 133.352C138.164 132.388 137.708 131.516 137.188 130.734C136.719 129.953 136.185 129.536 135.586 129.484C134.961 129.536 134.401 129.953 133.906 130.734C133.411 131.516 132.956 132.388 132.539 133.352C132.148 134.289 131.745 135.292 131.328 136.359L127.617 146.516C127.357 147.062 127.018 147.518 126.602 147.883C126.211 148.221 125.612 148.391 124.805 148.391C124.049 148.391 123.424 148.13 122.93 147.609C122.461 147.089 122.253 146.464 122.305 145.734C122.331 145.396 122.409 145.083 122.539 144.797L126.836 133.703C128.034 130.786 129.232 128.43 130.43 126.633C131.602 124.862 133.32 123.964 135.586 123.938C137.826 123.964 139.531 124.862 140.703 126.633C141.901 128.378 143.099 130.734 144.297 133.703L148.594 144.797C148.724 145.083 148.802 145.396 148.828 145.734C148.88 146.464 148.659 147.089 148.164 147.609C147.695 148.13 147.083 148.391 146.328 148.391C145.469 148.391 144.831 148.221 144.414 147.883C144.023 147.518 143.698 147.062 143.438 146.516L142.695 144.484H134.844C134.115 144.484 133.503 144.224 133.008 143.703C132.487 143.208 132.227 142.596 132.227 141.867ZM155.352 124.25C156.081 124.25 156.706 124.497 157.227 124.992C157.747 125.461 158.021 126.06 158.047 126.789V136.203C158.021 137.271 158.086 138.26 158.242 139.172C158.424 140.057 158.841 140.852 159.492 141.555C160.143 142.258 160.964 142.635 161.953 142.688H174.453C175.182 142.714 175.781 142.987 176.25 143.508C176.745 144.029 176.992 144.654 176.992 145.383C176.966 146.086 176.706 146.685 176.211 147.18C175.742 147.648 175.156 147.896 174.453 147.922H160.625C158.802 147.818 157.292 147.206 156.094 146.086C154.922 144.94 154.076 143.547 153.555 141.906C153.06 140.266 152.799 138.521 152.773 136.672V126.789C152.799 126.086 153.06 125.5 153.555 125.031C154.049 124.536 154.648 124.276 155.352 124.25Z" fill="white"/>
<path d="M57.8008 172.389C57.6836 173.561 57.0391 174.195 55.8672 174.293C55.3203 174.293 54.8418 174.117 54.4316 173.766C54.041 173.395 53.8457 172.936 53.8457 172.389V158.561C53.8652 158.014 54.0703 157.564 54.4609 157.213C54.8516 156.842 55.3203 156.656 55.8672 156.656H68.1719C69.8906 156.715 71.1895 157.096 72.0684 157.799C72.9473 158.482 73.582 159.264 73.9727 160.143C74.3633 161.021 74.5586 161.91 74.5586 162.809C74.5586 163.746 74.3633 164.654 73.9727 165.533C73.6016 166.412 72.9668 167.203 72.0684 167.906C71.1895 168.59 70.0664 168.922 68.6992 168.902H61.3164C60.7695 168.902 60.3105 168.707 59.9395 168.316C59.5488 167.945 59.3535 167.486 59.3535 166.939C59.3535 166.393 59.5391 165.934 59.9102 165.562C60.3008 165.172 60.7695 164.977 61.3164 164.977H68.875C69.2461 164.977 69.5488 164.859 69.7832 164.625C70.0371 164.371 70.2227 164.088 70.3398 163.775C70.457 163.443 70.5156 163.111 70.5156 162.779C70.5156 162.467 70.457 162.154 70.3398 161.842C70.2227 161.51 70.0371 161.227 69.7832 160.992C69.5488 160.738 69.2461 160.602 68.875 160.582H58.5625C58.0547 160.602 57.8008 160.855 57.8008 161.344V172.389ZM78.2793 164.332C78.6504 163.395 79.2754 162.555 80.1543 161.812C81.0527 161.051 82.1855 160.66 83.5527 160.641H94.5684C95.1152 160.641 95.5742 160.836 95.9453 161.227C96.3359 161.598 96.5312 162.057 96.5312 162.604C96.5312 163.15 96.3359 163.619 95.9453 164.01C95.5742 164.381 95.1152 164.566 94.5684 164.566H83.4355C83.0645 164.566 82.7422 164.723 82.4688 165.035C82.1953 165.328 81.9805 165.68 81.8242 166.09C81.6875 166.5 81.6191 166.891 81.6191 167.262V172.389C81.502 173.561 80.8574 174.195 79.6855 174.293C79.1387 174.293 78.6602 174.117 78.25 173.766C77.8594 173.395 77.6641 172.936 77.6641 172.389V167.291H77.6934C77.6934 166.275 77.8887 165.289 78.2793 164.332ZM105.496 173.941C103.777 173.883 102.479 173.482 101.6 172.74C100.721 171.979 100.086 171.129 99.6953 170.191C99.3047 169.234 99.1094 168.268 99.1094 167.291C99.1094 166.275 99.2949 165.299 99.666 164.361C100.057 163.404 100.691 162.555 101.57 161.812C102.469 161.051 103.602 160.66 104.969 160.641H114.461C115.828 160.66 116.951 161.051 117.83 161.812C118.729 162.555 119.363 163.404 119.734 164.361C120.125 165.299 120.32 166.275 120.32 167.291C120.32 168.268 120.125 169.234 119.734 170.191C119.344 171.129 118.709 171.979 117.83 172.74C116.951 173.482 115.652 173.883 113.934 173.941H105.496ZM104.852 164.566C104.48 164.566 104.158 164.723 103.885 165.035C103.611 165.328 103.406 165.68 103.27 166.09C103.152 166.48 103.094 166.871 103.094 167.262C103.094 167.672 103.152 168.082 103.27 168.492C103.406 168.883 103.611 169.234 103.885 169.547C104.158 169.84 104.48 169.996 104.852 170.016H114.578C114.949 169.996 115.271 169.84 115.545 169.547C115.818 169.234 116.014 168.883 116.131 168.492C116.268 168.082 116.336 167.672 116.336 167.262C116.336 166.871 116.268 166.48 116.131 166.09C116.014 165.68 115.818 165.328 115.545 165.035C115.271 164.723 114.949 164.566 114.578 164.566H104.852Z" fill="white"/>
<rect x="37" width="99" height="99" rx="30" fill="white"/>
</svg>
