<svg width="179" height="191" viewBox="0 0 179 191" fill="none" xmlns="http://www.w3.org/2000/svg">
<path d="M5.15625 161.391C4.45312 161.365 3.85417 161.117 3.35938 160.648C2.86458 160.154 2.60417 159.555 2.57812 158.852V149.125C2.60417 147.276 2.86458 145.531 3.35938 143.891C3.88021 142.25 4.72656 140.87 5.89844 139.75C7.09635 138.604 8.60677 137.979 10.4297 137.875H25.5078C26.2109 137.901 26.7969 138.161 27.2656 138.656C27.7604 139.125 28.0208 139.711 28.0469 140.414C28.0469 141.143 27.7995 141.768 27.3047 142.289C26.8359 142.81 26.237 143.083 25.5078 143.109H11.7578C10.7682 143.161 9.94792 143.539 9.29688 144.242C8.64583 144.945 8.22917 145.753 8.04688 146.664C7.89062 147.549 7.82552 148.526 7.85156 149.594V158.852C7.82552 159.581 7.55208 160.193 7.03125 160.688C6.51042 161.156 5.88542 161.391 5.15625 161.391ZM9.6875 151.117C9.6875 150.388 9.94792 149.776 10.4688 149.281C10.9635 148.76 11.5755 148.5 12.3047 148.5H25.5078C26.237 148.5 26.849 148.76 27.3438 149.281C27.8646 149.776 28.125 150.388 28.125 151.117C28.125 151.846 27.8776 152.471 27.3828 152.992C26.862 153.487 26.237 153.734 25.5078 153.734H12.3047C11.5755 153.734 10.9505 153.487 10.4297 152.992C9.9349 152.471 9.6875 151.846 9.6875 151.117ZM44.1406 161.82C42.7865 161.82 41.4453 161.664 40.1172 161.352C38.8151 161.039 37.5651 160.583 36.3672 159.984C35.1693 159.359 34.1146 158.539 33.2031 157.523C32.2917 156.508 31.7969 155.297 31.7188 153.891V152.25V139.789C31.7188 139.06 31.9792 138.461 32.5 137.992C33.0469 137.497 33.6849 137.25 34.4141 137.25C35.9766 137.38 36.8229 138.227 36.9531 139.789V152.68C37.0052 153.487 37.3047 154.164 37.8516 154.711C38.4245 155.232 39.0495 155.648 39.7266 155.961C40.4297 156.273 41.1458 156.508 41.875 156.664C42.6302 156.82 43.3854 156.898 44.1406 156.898C44.8958 156.898 45.638 156.82 46.3672 156.664C47.1224 156.508 47.8385 156.273 48.5156 155.961C49.2188 155.648 49.8438 155.232 50.3906 154.711C50.9635 154.164 51.276 153.487 51.3281 152.68V139.789C51.3281 139.06 51.5885 138.461 52.1094 137.992C52.6562 137.497 53.2943 137.25 54.0234 137.25C55.5859 137.38 56.4453 138.227 56.6016 139.789V152.25V153.891C56.5234 155.297 56.0156 156.508 55.0781 157.523C54.1667 158.539 53.112 159.359 51.9141 159.984C50.7161 160.583 49.4531 161.039 48.125 161.352C46.8229 161.664 45.4948 161.82 44.1406 161.82ZM61.0547 140.492C61.0547 139.763 61.3021 139.151 61.7969 138.656C62.3177 138.135 62.9427 137.875 63.6719 137.875H86.4062C87.1354 137.875 87.7604 138.122 88.2812 138.617C88.776 139.138 89.0234 139.763 89.0234 140.492C89.0234 141.221 88.763 141.846 88.2422 142.367C87.7474 142.862 87.1354 143.109 86.4062 143.109H77.6953V158.93C77.5391 160.492 76.6797 161.339 75.1172 161.469C74.388 161.469 73.75 161.234 73.2031 160.766C72.6823 160.271 72.4219 159.659 72.4219 158.93V143.109H63.6719C62.9427 143.109 62.3307 142.849 61.8359 142.328C61.3151 141.833 61.0547 141.221 61.0547 140.492ZM118.398 140.492C118.398 141.221 118.138 141.833 117.617 142.328C117.122 142.849 116.51 143.109 115.781 143.109H100.156C99.6615 143.135 99.2448 143.253 98.9062 143.461C98.5938 143.643 98.3594 143.865 98.2031 144.125C98.0469 144.359 97.9688 144.607 97.9688 144.867C97.9688 145.128 98.0469 145.388 98.2031 145.648C98.3594 145.883 98.5938 146.104 98.9062 146.312C99.2448 146.495 99.6615 146.599 100.156 146.625H111.25C113.073 146.677 114.57 147.107 115.742 147.914C116.94 148.695 117.786 149.607 118.281 150.648C118.802 151.664 119.062 152.706 119.062 153.773C119.062 154.815 118.802 155.857 118.281 156.898C117.76 157.914 116.914 158.826 115.742 159.633C114.57 160.414 113.073 160.805 111.25 160.805H111.016C110.859 160.831 110.703 160.844 110.547 160.844H95.7812C95.0521 160.844 94.4271 160.596 93.9062 160.102C93.4115 159.581 93.1641 158.956 93.1641 158.227C93.1641 157.497 93.4245 156.885 93.9453 156.391C94.4401 155.87 95.0521 155.609 95.7812 155.609H111.484C111.979 155.635 112.383 155.544 112.695 155.336C113.034 155.128 113.281 154.893 113.438 154.633C113.594 154.346 113.672 154.06 113.672 153.773C113.672 153.591 113.594 153.344 113.438 153.031C113.281 152.693 113.034 152.419 112.695 152.211C112.383 152.003 111.979 151.885 111.484 151.859H100.391C98.5677 151.807 97.0573 151.391 95.8594 150.609C94.6875 149.828 93.8411 148.943 93.3203 147.953C92.8255 146.938 92.5781 145.909 92.5781 144.867C92.5781 143.852 92.8385 142.849 93.3594 141.859C93.8802 140.844 94.7266 139.945 95.8984 139.164C97.0703 138.383 98.5677 137.966 100.391 137.914H100.625C100.781 137.888 100.938 137.875 101.094 137.875H115.781C116.51 137.875 117.122 138.135 117.617 138.656C118.138 139.151 118.398 139.763 118.398 140.492ZM132.227 154.867C132.227 154.138 132.474 153.526 132.969 153.031C133.49 152.51 134.115 152.25 134.844 152.25H140.82L139.805 149.359C139.388 148.292 138.971 147.289 138.555 146.352C138.164 145.388 137.708 144.516 137.188 143.734C136.719 142.953 136.185 142.536 135.586 142.484C134.961 142.536 134.401 142.953 133.906 143.734C133.411 144.516 132.956 145.388 132.539 146.352C132.148 147.289 131.745 148.292 131.328 149.359L127.617 159.516C127.357 160.062 127.018 160.518 126.602 160.883C126.211 161.221 125.612 161.391 124.805 161.391C124.049 161.391 123.424 161.13 122.93 160.609C122.461 160.089 122.253 159.464 122.305 158.734C122.331 158.396 122.409 158.083 122.539 157.797L126.836 146.703C128.034 143.786 129.232 141.43 130.43 139.633C131.602 137.862 133.32 136.964 135.586 136.938C137.826 136.964 139.531 137.862 140.703 139.633C141.901 141.378 143.099 143.734 144.297 146.703L148.594 157.797C148.724 158.083 148.802 158.396 148.828 158.734C148.88 159.464 148.659 160.089 148.164 160.609C147.695 161.13 147.083 161.391 146.328 161.391C145.469 161.391 144.831 161.221 144.414 160.883C144.023 160.518 143.698 160.062 143.438 159.516L142.695 157.484H134.844C134.115 157.484 133.503 157.224 133.008 156.703C132.487 156.208 132.227 155.596 132.227 154.867ZM155.352 137.25C156.081 137.25 156.706 137.497 157.227 137.992C157.747 138.461 158.021 139.06 158.047 139.789V149.203C158.021 150.271 158.086 151.26 158.242 152.172C158.424 153.057 158.841 153.852 159.492 154.555C160.143 155.258 160.964 155.635 161.953 155.688H174.453C175.182 155.714 175.781 155.987 176.25 156.508C176.745 157.029 176.992 157.654 176.992 158.383C176.966 159.086 176.706 159.685 176.211 160.18C175.742 160.648 175.156 160.896 174.453 160.922H160.625C158.802 160.818 157.292 160.206 156.094 159.086C154.922 157.94 154.076 156.547 153.555 154.906C153.06 153.266 152.799 151.521 152.773 149.672V139.789C152.799 139.086 153.06 138.5 153.555 138.031C154.049 137.536 154.648 137.276 155.352 137.25Z" fill="white"/>
<path d="M60.8008 185.389C60.6836 186.561 60.0391 187.195 58.8672 187.293C58.3203 187.293 57.8418 187.117 57.4316 186.766C57.041 186.395 56.8457 185.936 56.8457 185.389V171.561C56.8652 171.014 57.0703 170.564 57.4609 170.213C57.8516 169.842 58.3203 169.656 58.8672 169.656H71.1719C72.8906 169.715 74.1895 170.096 75.0684 170.799C75.9473 171.482 76.582 172.264 76.9727 173.143C77.3633 174.021 77.5586 174.91 77.5586 175.809C77.5586 176.746 77.3633 177.654 76.9727 178.533C76.6016 179.412 75.9668 180.203 75.0684 180.906C74.1895 181.59 73.0664 181.922 71.6992 181.902H64.3164C63.7695 181.902 63.3105 181.707 62.9395 181.316C62.5488 180.945 62.3535 180.486 62.3535 179.939C62.3535 179.393 62.5391 178.934 62.9102 178.562C63.3008 178.172 63.7695 177.977 64.3164 177.977H71.875C72.2461 177.977 72.5488 177.859 72.7832 177.625C73.0371 177.371 73.2227 177.088 73.3398 176.775C73.457 176.443 73.5156 176.111 73.5156 175.779C73.5156 175.467 73.457 175.154 73.3398 174.842C73.2227 174.51 73.0371 174.227 72.7832 173.992C72.5488 173.738 72.2461 173.602 71.875 173.582H61.5625C61.0547 173.602 60.8008 173.855 60.8008 174.344V185.389ZM81.2793 177.332C81.6504 176.395 82.2754 175.555 83.1543 174.812C84.0527 174.051 85.1855 173.66 86.5527 173.641H97.5684C98.1152 173.641 98.5742 173.836 98.9453 174.227C99.3359 174.598 99.5312 175.057 99.5312 175.604C99.5312 176.15 99.3359 176.619 98.9453 177.01C98.5742 177.381 98.1152 177.566 97.5684 177.566H86.4355C86.0645 177.566 85.7422 177.723 85.4688 178.035C85.1953 178.328 84.9805 178.68 84.8242 179.09C84.6875 179.5 84.6191 179.891 84.6191 180.262V185.389C84.502 186.561 83.8574 187.195 82.6855 187.293C82.1387 187.293 81.6602 187.117 81.25 186.766C80.8594 186.395 80.6641 185.936 80.6641 185.389V180.291H80.6934C80.6934 179.275 80.8887 178.289 81.2793 177.332ZM108.496 186.941C106.777 186.883 105.479 186.482 104.6 185.74C103.721 184.979 103.086 184.129 102.695 183.191C102.305 182.234 102.109 181.268 102.109 180.291C102.109 179.275 102.295 178.299 102.666 177.361C103.057 176.404 103.691 175.555 104.57 174.812C105.469 174.051 106.602 173.66 107.969 173.641H117.461C118.828 173.66 119.951 174.051 120.83 174.812C121.729 175.555 122.363 176.404 122.734 177.361C123.125 178.299 123.32 179.275 123.32 180.291C123.32 181.268 123.125 182.234 122.734 183.191C122.344 184.129 121.709 184.979 120.83 185.74C119.951 186.482 118.652 186.883 116.934 186.941H108.496ZM107.852 177.566C107.48 177.566 107.158 177.723 106.885 178.035C106.611 178.328 106.406 178.68 106.27 179.09C106.152 179.48 106.094 179.871 106.094 180.262C106.094 180.672 106.152 181.082 106.27 181.492C106.406 181.883 106.611 182.234 106.885 182.547C107.158 182.84 107.48 182.996 107.852 183.016H117.578C117.949 182.996 118.271 182.84 118.545 182.547C118.818 182.234 119.014 181.883 119.131 181.492C119.268 181.082 119.336 180.672 119.336 180.262C119.336 179.871 119.268 179.48 119.131 179.09C119.014 178.68 118.818 178.328 118.545 178.035C118.271 177.723 117.949 177.566 117.578 177.566H107.852Z" fill="white"/>
<path d="M139.875 76.2268L135.365 36.748C134.54 30.9858 131.733 25.6915 127.425 21.7759C123.118 17.8603 117.581 15.5684 111.767 15.2945V6.25726C111.767 4.59773 111.107 3.00617 109.934 1.83271C108.76 0.659245 107.169 0 105.509 0C103.85 0 102.258 0.659245 101.085 1.83271C99.9114 3.00617 99.2521 4.59773 99.2521 6.25726V15.2856H75.4209V6.6327C75.4209 4.97317 74.7616 3.38161 73.5882 2.20814C72.4147 1.03468 70.8232 0.375436 69.1636 0.375436C67.5041 0.375436 65.9125 1.03468 64.7391 2.20814C63.5656 3.38161 62.9064 4.97317 62.9064 6.6327V16.0186C58.1161 17.2107 53.7854 19.7927 50.4588 23.4398C47.1322 27.0869 44.9583 31.6362 44.2106 36.5156L40.1031 76.428C39.8216 79.1657 40.118 81.9321 40.9729 84.5481C41.8278 87.1642 43.2224 89.5717 45.0663 91.6148C46.9102 93.658 49.1624 95.2914 51.6773 96.4094C54.1922 97.5273 56.9138 98.105 59.666 98.1049H120.352C123.12 98.1024 125.856 97.5156 128.382 96.3831C130.907 95.2506 133.165 93.5977 135.007 91.5327C136.85 89.4676 138.236 87.0369 139.075 84.3993C139.914 81.7618 140.187 78.977 139.875 76.2268ZM95.5827 32.3992C95.7346 31.3131 95.8866 30.2315 96.0296 29.1454C96.0654 28.8639 96.1235 28.7432 96.262 28.7432C96.3708 28.7613 96.4744 28.8024 96.566 28.8639C98.2912 29.8605 100.016 30.8528 101.719 31.8807C103.036 32.6763 104.335 33.5017 105.617 34.3568C107.163 35.3848 108.681 36.4471 110.171 37.5436C111.512 38.5224 112.853 39.5369 114.144 40.5694C115.186 41.3873 116.196 42.241 117.197 43.1081C117.68 43.5237 118.136 43.9662 118.605 44.3997L107.489 48.5653C106.865 48.8017 106.191 48.8777 105.53 48.7864C104.869 48.695 104.241 48.4392 103.704 48.0424L103.06 47.5641C102.894 47.4414 102.7 47.3624 102.495 47.3343C102.29 47.3063 102.082 47.33 101.889 47.4034C101.696 47.4768 101.524 47.5975 101.39 47.7544C101.256 47.9114 101.163 48.0995 101.12 48.3016L100.508 51.2023L100.383 51.7967L100.226 52.5297C100.121 53.0332 100.198 53.5578 100.443 54.0097C100.689 54.4617 101.087 54.8116 101.567 54.9969C101.742 55.0655 101.888 55.1912 101.982 55.3535C102.076 55.5158 102.113 55.7051 102.086 55.8908L101.254 60.5792C101.225 60.7517 101.156 60.915 101.054 61.0568C100.951 61.1986 100.818 61.3149 100.663 61.3969C100.508 61.4789 100.337 61.5244 100.162 61.5299C99.9875 61.5353 99.8137 61.5006 99.6544 61.4284L95.6318 59.6406C94.3735 59.082 93.3381 58.1187 92.6902 56.9039C92.0423 55.6891 91.8192 54.2926 92.0563 52.9364L95.3905 33.816L95.5827 32.3992ZM102.814 57.5892L102.676 58.2417L102.327 57.7724L102.814 57.5892ZM85.1822 72.3742C84.9438 74.0785 84.7055 75.7829 84.4671 77.4872C84.2406 79.1201 84.0142 80.7514 83.7877 82.3813C83.6984 83.0115 83.6045 83.6372 83.5017 84.2585C83.4391 84.6295 83.2246 84.7054 82.9028 84.5311C81.3742 83.6372 79.8233 82.8014 78.3171 81.8897C77.0254 81.112 75.7695 80.2807 74.5181 79.4493C73.1772 78.5554 71.8364 77.6615 70.5223 76.7364C69.5122 76.0213 68.5334 75.2614 67.5501 74.5016C66.5669 73.7418 65.4495 72.8882 64.4215 72.0524C63.7243 71.4892 63.0807 70.8814 62.3834 70.2914C61.6862 69.7014 60.9621 69.0489 60.2649 68.4097C60.1439 68.2915 60.072 68.1318 60.0638 67.9628C60.0638 66.4611 60.0995 64.9548 60.18 63.4576C60.2783 61.71 60.4303 59.9714 60.5778 58.2283C60.694 56.8383 60.8012 55.4438 60.9934 54.0583C61.3152 51.7729 61.6713 49.4905 62.0616 47.211C62.4058 45.2266 62.7768 43.2421 63.2103 41.2756C63.6125 39.461 64.1042 37.6642 64.5958 35.8675C64.6787 35.6357 64.8358 35.4377 65.0428 35.3044C65.6685 34.8932 66.321 34.5267 66.9602 34.1423L67.0049 34.2138C67.711 33.7981 68.4038 33.3557 69.1234 32.9713C70.6833 32.14 72.252 31.2818 73.8387 30.5354C76.9524 29.0873 80.0811 27.6794 83.2246 26.3118C84.7978 25.6369 86.4292 25.105 88.0382 24.524C89.2226 24.077 90.4204 23.7061 91.6138 23.3217C92.1054 23.1653 92.1501 23.2189 92.0607 23.7374C91.7211 26.1211 91.3784 28.5123 91.0328 30.9109C90.8048 32.5154 90.5858 34.1155 90.3534 35.7245C90.3411 35.8293 90.3093 35.9309 90.2595 36.0239L87.8594 52.3509C87.7884 52.8268 87.6034 53.2784 87.3202 53.6673C87.037 54.0563 86.6641 54.3711 86.233 54.5848C85.802 54.7986 85.3257 54.905 84.8447 54.895C84.3637 54.8851 83.8922 54.759 83.4704 54.5276L82.5765 54.0046C81.7816 53.55 81.1323 52.8788 80.7042 52.0693C80.2761 51.2598 80.0868 50.3453 80.1585 49.4324L80.6055 43.7785C80.6323 43.4192 80.5633 43.0593 80.4054 42.7355C80.2475 42.4116 80.0064 42.1356 79.7068 41.9355C79.4071 41.7355 79.0598 41.6186 78.7001 41.5969C78.3405 41.5752 77.9816 41.6494 77.6601 41.8119L75.4254 42.9472C75.2044 43.137 75.0598 43.4007 75.0186 43.6891C74.6209 45.6244 74.2097 47.5597 73.8923 49.4994C73.6063 51.2872 73.4454 53.0437 73.2264 54.8225C73.1961 55.0934 73.2258 55.3675 73.3135 55.6255C73.4012 55.8835 73.5447 56.1191 73.7337 56.3154C73.9227 56.5116 74.1527 56.6639 74.4072 56.7612C74.6617 56.8585 74.9346 56.8986 75.2064 56.8785L77.964 56.6818L80.6457 58.3713C80.8473 58.4976 81.0177 58.6678 81.1443 58.8692C81.2708 59.0706 81.3501 59.2981 81.3763 59.5345C81.4026 59.7709 81.375 60.0102 81.2957 60.2345C81.2164 60.4587 81.0874 60.6621 80.9183 60.8295L77.0969 64.6196C76.9811 64.7348 76.8916 64.8737 76.8348 65.0269C76.778 65.18 76.7552 65.3437 76.7679 65.5066C76.7807 65.6694 76.8287 65.8275 76.9087 65.97C76.9886 66.1124 77.0986 66.2358 77.231 66.3314L80.3597 68.5662C81.8301 69.5629 83.3274 70.5193 84.8291 71.4847C84.9729 71.5781 85.0842 71.7138 85.1474 71.8732C85.2107 72.0325 85.2228 72.2076 85.1822 72.3742ZM119.038 53.7096V53.7409C118.904 55.3142 118.761 56.8696 118.592 58.4562C118.39 60.1636 118.185 61.8754 117.899 63.5738C117.467 66.175 116.99 68.7688 116.469 71.3551C116.111 73.1429 115.646 74.8681 115.222 76.6246C115.163 76.9733 115.059 77.3128 114.913 77.6347C114.749 77.9241 114.52 78.1706 114.243 78.3543C113.532 78.837 112.79 79.2795 112.044 79.6952C111.078 80.2494 110.108 80.8036 109.116 81.3086C107.217 82.283 105.326 83.2797 103.382 84.1602C101.348 85.0853 99.2611 85.8943 97.1917 86.739C95.9715 87.2307 94.7514 87.7134 93.5133 88.1693C92.4675 88.5581 91.3993 88.8933 90.3445 89.2598C89.6785 89.4922 89.0036 89.7425 88.3555 89.9794C88.2112 90.0361 88.0614 90.078 87.9086 90.1046C87.4617 90.1716 87.3588 90.042 87.4348 89.5861C87.6047 88.5313 87.7522 87.4676 87.9041 86.4038C88.0963 85.0228 88.2796 83.6372 88.4762 82.2517C88.5894 81.4561 88.7027 80.6621 88.8159 79.8695L89.4863 73.5094C89.5933 72.4677 89.4168 71.4165 88.9754 70.4669C88.534 69.5172 87.8442 68.7046 86.9789 68.1148L82.3307 64.9593L86.532 60.9636L96.7626 64.6867C97.6986 65.0252 98.4864 65.6809 98.9894 66.5398C99.4923 67.3987 99.6786 68.4066 99.5158 69.3886L99.1985 71.3417C99.169 71.516 99.1883 71.6951 99.2544 71.859C99.3205 72.023 99.4307 72.1654 99.5729 72.2705C99.715 72.3756 99.8835 72.4393 100.06 72.4544C100.236 72.4696 100.413 72.4356 100.571 72.3563C101.661 71.811 102.738 71.2479 103.829 70.716C104.01 70.6373 104.169 70.5141 104.29 70.3578C104.411 70.2016 104.491 70.0173 104.522 69.8221C104.915 67.8019 105.366 65.7996 105.702 63.766C105.997 61.9782 106.149 60.1591 106.376 58.3534C106.502 57.321 106.622 56.2841 106.707 55.2248L106.747 54.7778L116.343 51.5822C116.666 51.4775 117.01 51.4541 117.344 51.514C117.679 51.5739 117.993 51.7153 118.259 51.9257C118.526 52.1361 118.736 52.4089 118.872 52.7201C119.008 53.0313 119.065 53.3712 119.038 53.7096Z" fill="white"/>
</svg>
