<svg width="20" height="24" viewBox="0 0 20 24" fill="none" xmlns="http://www.w3.org/2000/svg">
<g clip-path="url(#clip0_161_169)">
<path d="M0.419748 10.5199C-0.138288 11.0833 -0.138288 11.9983 0.419748 12.5617L7.5626 19.7732C8.12064 20.3367 9.02689 20.3367 9.58493 19.7732C10.143 19.2098 10.143 18.2949 9.58493 17.7315L4.8751 12.9809H18.5715C19.3617 12.9809 20.0001 12.3363 20.0001 11.5386C20.0001 10.7408 19.3617 10.0963 18.5715 10.0963H4.87957L9.58046 5.34567C10.1385 4.78226 10.1385 3.8673 9.58046 3.3039C9.02243 2.7405 8.11618 2.7405 7.55814 3.3039L0.415283 10.5154L0.419748 10.5199Z" fill="white"/>
</g>
<defs>
<clipPath id="clip0_161_169">
<rect width="20" height="23.0769" fill="white"/>
</clipPath>
</defs>
</svg>
