<svg width="30" height="26" viewBox="0 0 30 26" fill="none" xmlns="http://www.w3.org/2000/svg">
<path d="M8.87997 0.229959L29.9482 8.49641C29.6315 8.76864 29.2669 8.9796 28.8731 9.11852C24.7453 10.8686 21.0122 13.4321 17.8966 16.6562C17.2088 17.3702 16.9691 17.5409 16.4964 17.3472C15.2357 16.8302 13.9652 16.3361 12.6324 15.8075C11.8182 17.9578 11.0073 20.0918 10.1915 22.2257C10.0799 22.5201 9.88125 22.7736 9.62206 22.9525C9.36286 23.1314 9.05536 23.2271 8.74045 23.227H3.78321V24.852C3.78321 25.0697 3.69674 25.2785 3.54282 25.4324C3.3889 25.5863 3.18014 25.6728 2.96247 25.6728H1.35711C1.13944 25.6728 0.930683 25.5863 0.776765 25.4324C0.622847 25.2785 0.536377 25.0697 0.536377 24.852V18.3699C0.536377 18.1522 0.622847 17.9434 0.776765 17.7895C0.930683 17.6356 1.13944 17.5491 1.35711 17.5491H2.94277C3.16045 17.5491 3.3692 17.6356 3.52312 17.7895C3.67704 17.9434 3.76351 18.1522 3.76351 18.3699V19.9818C5.01103 19.9818 6.20766 19.9818 7.40593 19.9818C7.45495 19.9747 7.5016 19.9561 7.5421 19.9276C7.5826 19.899 7.6158 19.8614 7.63902 19.8176C8.3071 18.0924 8.96533 16.3705 9.63833 14.5994L2.93457 11.9139C2.63456 11.7942 2.36372 11.6115 2.14034 11.3782C1.91695 11.1448 1.74621 10.8663 1.63964 10.5614C1.53307 10.2564 1.49315 9.9322 1.52256 9.61052C1.55198 9.28884 1.65005 8.97721 1.81016 8.69666L6.09275 1.20335C6.36375 0.734182 6.79415 0.377872 7.30566 0.199234C7.81718 0.0205961 8.37582 0.0314987 8.87997 0.229959Z" fill="#F7C137"/>
<path d="M29.4592 14.2892L27.8719 18.1433C27.7744 18.3797 27.6311 18.5945 27.4501 18.7751C27.2691 18.9558 27.0541 19.0988 26.8175 19.1959C26.5809 19.293 26.3274 19.3422 26.0717 19.3407C25.816 19.3392 25.5631 19.2871 25.3277 19.1873L20.8432 17.2865C20.8004 17.2684 20.7633 17.2391 20.7356 17.2019C20.7079 17.1646 20.6906 17.1206 20.6856 17.0744C20.6806 17.0282 20.688 16.9816 20.707 16.9392C20.7261 16.8969 20.7561 16.8603 20.7939 16.8334C22.9716 15.3299 25.1493 13.8252 27.327 12.3194C27.4169 12.2411 27.528 12.191 27.6462 12.1755C27.7645 12.1601 27.8847 12.1798 27.9918 12.2324C28.2265 12.3342 28.4629 12.431 28.7025 12.5262C28.8686 12.5915 29.02 12.6891 29.1481 12.8133C29.2762 12.9375 29.3784 13.0858 29.4488 13.2498C29.5192 13.4137 29.5563 13.59 29.5581 13.7684C29.5599 13.9468 29.5263 14.1238 29.4592 14.2892Z" fill="#D1B878"/>
</svg>
