<svg width="14" height="18" viewBox="0 0 14 18" fill="none" xmlns="http://www.w3.org/2000/svg">
<path d="M9.055 6.7499L8.7955 13.4999M5.2045 13.4999L4.945 6.7499M12.421 4.3424C12.6775 4.3814 12.9325 4.42265 13.1875 4.4669M12.421 4.3424L11.62 14.7547C11.5873 15.1786 11.3958 15.5745 11.0838 15.8633C10.7717 16.1521 10.3622 16.3125 9.937 16.3124H4.063C3.63782 16.3125 3.22827 16.1521 2.91623 15.8633C2.6042 15.5745 2.41269 15.1786 2.38 14.7547L1.579 4.3424M12.421 4.3424C11.5554 4.21154 10.6853 4.11222 9.8125 4.04465M1.579 4.3424C1.3225 4.38065 1.0675 4.4219 0.8125 4.46615M1.579 4.3424C2.4446 4.21154 3.31468 4.11223 4.1875 4.04465M9.8125 4.04465V3.35765C9.8125 2.47265 9.13 1.73465 8.245 1.7069C7.41521 1.68038 6.58479 1.68038 5.755 1.7069C4.87 1.73465 4.1875 2.4734 4.1875 3.35765V4.04465M9.8125 4.04465C7.94029 3.89996 6.05971 3.89996 4.1875 4.04465" stroke="#FF0000" stroke-width="1.5" stroke-linecap="round" stroke-linejoin="round"/>
</svg>
