<svg width="16" height="17" viewBox="0 0 16 17" fill="none" xmlns="http://www.w3.org/2000/svg">
<path d="M10.8541 3.03728C12.3179 3.6702 13.5129 4.76997 14.2395 6.15285C14.9661 7.53574 15.1803 9.11801 14.8464 10.6353C14.5124 12.1527 13.6505 13.5132 12.4046 14.4896C11.1587 15.466 9.60425 15.9991 8.00097 16C6.62958 15.9999 5.2884 15.6102 4.14393 14.8791C2.99945 14.148 2.10207 13.1078 1.56318 11.8875C1.0243 10.6673 0.867636 9.32079 1.11265 8.01517C1.35766 6.70954 1.99355 5.50229 2.94139 4.54327C3.59455 5.42579 4.45642 6.14432 5.45505 6.63886C5.47255 5.55381 5.73724 4.48586 6.23027 3.51116C6.7233 2.53646 7.43251 1.67903 8.30733 1C8.97499 1.86647 9.84817 2.56492 10.8532 3.03646L10.8541 3.03728Z" fill="#FF0000" stroke="white" stroke-linecap="round" stroke-linejoin="round"/>
<path d="M8.00076 13C8.76196 12.9997 9.49459 12.7089 10.0503 12.1864C10.6059 11.6639 10.9431 10.9489 10.9934 10.1861C11.0438 9.42326 10.8036 8.66976 10.3214 8.07819C9.8393 7.48661 9.15131 7.10119 8.39681 7C7.57077 7.74232 7.02648 8.74926 6.85663 9.84934C6.2403 9.69791 5.66016 9.42475 5.15003 9.0458C5.0019 9.49841 4.96274 9.97984 5.03576 10.4506C5.10879 10.9213 5.29192 11.368 5.57013 11.7539C5.84834 12.1398 6.21369 12.4539 6.63621 12.6705C7.05873 12.8872 7.52638 13.0001 8.00076 13Z" fill="#FF0000" stroke="white" stroke-linecap="round" stroke-linejoin="round"/>
</svg>
