<svg width="20" height="19" viewBox="0 0 20 19" fill="none" xmlns="http://www.w3.org/2000/svg">
<path d="M2.64845 6.19512C1.79087 7.16128 1.15228 8.28655 0.772949 9.5C1.95728 13.2957 5.64045 16.0625 10.0001 16.0625C10.9104 16.0625 11.7904 15.9417 12.6245 15.7169M4.70912 4.4495C6.27902 3.46058 8.11918 2.93472 10.0001 2.9375C14.3598 2.9375 18.042 5.70425 19.2264 9.49825C18.5773 11.5714 17.184 13.3601 15.2911 14.5505M4.70912 4.4495L1.75012 1.625M4.70912 4.4495L8.05495 7.64325M15.2911 14.5505L18.2501 17.375M15.2911 14.5505L11.9453 11.3567C12.2007 11.113 12.4032 10.8236 12.5415 10.5051C12.6797 10.1866 12.7508 9.84519 12.7508 9.50044C12.7508 9.15569 12.6797 8.81431 12.5415 8.49581C12.4032 8.1773 12.2007 7.8879 11.9453 7.64412C11.6899 7.40035 11.3867 7.20698 11.053 7.07505C10.7194 6.94312 10.3617 6.87522 10.0006 6.87522C9.63941 6.87522 9.28178 6.94312 8.9481 7.07505C8.61443 7.20698 8.31125 7.40035 8.05586 7.64412M11.9444 11.3559L8.05678 7.645" stroke="#606060" stroke-width="1.5" stroke-linecap="round" stroke-linejoin="round"/>
</svg>
