<svg width="20" height="24" viewBox="0 0 17 22" fill="none" xmlns="http://www.w3.org/2000/svg">
<path d="M8.46367 0.0356445V0.439624C8.46367 2.018 8.46367 3.5946 8.46367 5.17298C8.46367 6.26158 8.84325 7.16606 9.70627 7.85426C10.3168 8.33331 11.033 8.4924 11.7976 8.49061C13.3768 8.49061 14.9566 8.49061 16.537 8.49061H16.9077C16.9077 8.59787 16.9238 8.66937 16.9238 8.73908C16.9238 11.8226 16.9238 14.906 16.9238 17.9895C16.9406 18.6925 16.7139 19.3799 16.282 19.9354C15.8502 20.491 15.2395 20.8808 14.5531 21.039C14.2602 21.1102 13.9594 21.1444 13.6579 21.1409C10.1963 21.148 6.73465 21.148 3.27302 21.1409C1.34824 21.1409 0.010743 19.8199 0.00716198 17.8948C-0.00238733 13.0291 -0.00238733 8.16231 0.00716198 3.29429C0.00716198 1.36735 1.34466 0.0481571 3.26587 0.041007C4.89701 0.041007 6.52993 0.041007 8.16107 0.041007L8.46367 0.0356445ZM8.4762 16.917H9.31415C10.1091 16.917 10.9041 16.9313 11.6991 16.917C11.836 16.9153 11.9712 16.8859 12.0963 16.8303C12.2215 16.7748 12.334 16.6944 12.427 16.5941C12.52 16.4937 12.5915 16.3755 12.6372 16.2466C12.6829 16.1177 12.7018 15.9809 12.6928 15.8445C12.698 15.7094 12.6749 15.5747 12.6249 15.4491C12.575 15.3234 12.4993 15.2096 12.4027 15.1149C12.3061 15.0201 12.1908 14.9466 12.0641 14.8989C11.9373 14.8512 11.8021 14.8305 11.6669 14.8381C9.52902 14.831 7.39116 14.831 5.25331 14.8381C4.64096 14.8381 4.27928 15.2206 4.2578 15.8302C4.23273 16.5041 4.63739 16.9259 5.34821 16.9331C6.39744 16.9241 7.43414 16.917 8.4762 16.917ZM8.48695 10.5927C7.41265 10.5927 6.33835 10.5731 5.26405 10.5927C4.44759 10.6142 4.01071 11.4132 4.36881 12.1515C4.59799 12.6216 5.01338 12.6877 5.46459 12.6877C7.46636 12.6877 9.46933 12.6877 11.4735 12.6877C11.5872 12.6889 11.7008 12.6829 11.8137 12.6698C12.0173 12.6556 12.2107 12.5752 12.3643 12.441C12.5179 12.3067 12.6232 12.1259 12.6642 11.9262C12.8432 11.2273 12.4099 10.6142 11.6848 10.5981C10.6141 10.5749 9.5505 10.5927 8.48695 10.5927ZM5.82806 8.49419C6.09322 8.48895 6.35795 8.47045 6.62125 8.43878C7.1029 8.36191 7.40907 7.94363 7.40191 7.40559C7.39474 6.86755 7.09215 6.45642 6.61767 6.4153C6.09708 6.36883 5.57337 6.36883 5.05278 6.4153C4.54965 6.45999 4.25422 6.88185 4.25422 7.42525C4.25422 7.96866 4.56039 8.36728 5.05098 8.44414C5.30524 8.48168 5.56307 8.4781 5.82806 8.49419Z" fill="#EBEBEB"/>
<path d="M10.6051 0.736572L16.213 6.33687C16.1217 6.33687 16.0339 6.35832 15.9498 6.35832H11.7403C10.94 6.35832 10.5926 6.00082 10.5908 5.20359C10.5908 3.80455 10.5908 2.40373 10.5908 1.00113C10.5908 0.922474 10.598 0.843823 10.6051 0.736572Z" fill="#EBEBEB"/>
</svg>
