<svg width="25" height="24" viewBox="0 0 19 20" fill="none" xmlns="http://www.w3.org/2000/svg">
<path d="M6.64296 18.7775V15.7118C6.64618 15.3396 6.79549 14.9835 7.05874 14.7203C7.32198 14.4571 7.6781 14.3079 8.05037 14.3046H10.932C11.3072 14.3032 11.6676 14.4505 11.9344 14.7143C12.2011 14.978 12.3525 15.3367 12.3553 15.7118V18.7688C12.3553 19.0953 12.485 19.4085 12.716 19.6394C12.9469 19.8703 13.2602 20 13.5868 20H15.5431C16.4576 20.0027 17.3361 19.6436 17.9867 19.0009C18.3078 18.6835 18.5627 18.3055 18.7367 17.8888C18.9106 17.4722 19.0001 17.0251 19 16.5736V7.86353C18.998 7.50183 18.9168 7.14495 18.7621 6.81798C18.6074 6.49101 18.383 6.20189 18.1045 5.97095L11.4352 0.67312C10.8694 0.225101 10.1656 -0.0126349 9.44398 0.000517881C8.72235 0.0136706 8.02768 0.276896 7.47861 0.745235L0.967593 5.97095C0.675733 6.19465 0.437438 6.48061 0.270056 6.80801C0.102674 7.1354 0.0104168 7.49599 0 7.86353L0 16.5648C0.00161432 17.0169 0.0922662 17.4642 0.26678 17.8812C0.441293 18.2982 0.696251 18.6767 1.01709 18.9952C1.33794 19.3137 1.71839 19.5659 2.13671 19.7374C2.55504 19.9089 3.00306 19.9963 3.45519 19.9947H5.37278C5.53537 19.997 5.69681 19.9672 5.84778 19.9068C5.99876 19.8464 6.13628 19.7567 6.25241 19.6429C6.3671 19.5302 6.45821 19.3958 6.52043 19.2475C6.58265 19.0993 6.61473 18.9401 6.61481 18.7793L6.64296 18.7775Z" fill="#5E72E4"/>
</svg>
