<svg width="34" height="31" viewBox="0 0 34 31" fill="none" xmlns="http://www.w3.org/2000/svg">
<circle cx="17" cy="15" r="15" fill="white"/>
<g clip-path="url(#clip0_273_6)">
<path d="M30.0731 23.2794H30.0246C30.5242 22.1381 30.6399 20.8696 30.3548 19.6591C30.0697 18.4486 29.3987 17.3594 28.4396 16.5502C27.4806 15.7411 26.2837 15.2544 25.0236 15.1612C23.7634 15.068 22.506 15.3732 21.4346 16.0321C20.7098 14.29 19.3918 12.8497 17.7062 11.9576C16.0206 11.0654 14.0721 10.777 12.194 11.1415C10.316 11.506 8.62509 12.5009 7.41069 13.9559C6.19629 15.4109 5.53384 17.2357 5.53667 19.1179C5.53819 19.4504 5.56115 19.7824 5.60542 20.112H5.53667C4.80083 20.0982 4.06956 20.2288 3.38564 20.4961C2.70172 20.7634 2.07887 21.1621 1.5535 21.6689C1.02814 22.1757 0.610807 22.7804 0.325915 23.4476C0.0410233 24.1149 -0.105713 24.8313 -0.105713 25.5549C-0.105713 26.2786 0.0410233 26.995 0.325915 27.6622C0.610807 28.3295 1.02814 28.9342 1.5535 29.4409C2.07887 29.9477 2.70172 30.3464 3.38564 30.6138C4.06956 30.8811 4.80083 31.0116 5.53667 30.9978H30.0731C30.5962 31.0095 31.1164 30.9183 31.6031 30.7295C32.0898 30.5408 32.5332 30.2583 32.9073 29.8987C33.2815 29.5391 33.5787 29.1096 33.7817 28.6354C33.9847 28.1613 34.0892 27.652 34.0892 27.1376C34.0892 26.6232 33.9847 26.1139 33.7817 25.6398C33.5787 25.1656 33.2815 24.7361 32.9073 24.3765C32.5332 24.0169 32.0898 23.7344 31.6031 23.5457C31.1164 23.3569 30.5962 23.2657 30.0731 23.2774V23.2794Z" fill="#8465E2"/>
</g>
<circle cx="24" cy="5" r="5" fill="#B2A1FF"/>
<defs>
<clipPath id="clip0_273_6">
<rect width="34" height="20" fill="white" transform="translate(0 11)"/>
</clipPath>
</defs>
</svg>
