<svg width="17" height="21" viewBox="0 0 17 21" fill="none" xmlns="http://www.w3.org/2000/svg">
<path d="M13 9.03846V5.38462C13 4.22174 12.5259 3.1065 11.682 2.28422C10.8381 1.46195 9.69347 1 8.5 1C7.30653 1 6.16193 1.46195 5.31802 2.28422C4.47411 3.1065 4 4.22174 4 5.38462V9.03846M3.25 20H13.75C14.3467 20 14.919 19.769 15.341 19.3579C15.7629 18.9468 16 18.3891 16 17.8077V11.2308C16 10.6493 15.7629 10.0917 15.341 9.68057C14.919 9.26944 14.3467 9.03846 13.75 9.03846H3.25C2.65326 9.03846 2.08097 9.26944 1.65901 9.68057C1.23705 10.0917 1 10.6493 1 11.2308V17.8077C1 18.3891 1.23705 18.9468 1.65901 19.3579C2.08097 19.769 2.65326 20 3.25 20Z" stroke="#00A3FF" stroke-width="1.5" stroke-linecap="round" stroke-linejoin="round"/>
</svg>
