<svg width="21" height="20" viewBox="0 0 21 20" fill="none" xmlns="http://www.w3.org/2000/svg">
<path d="M9.63494 1.34882C9.67723 1.24566 9.74926 1.1574 9.84186 1.09528C9.93445 1.03317 10.0434 1 10.1549 1C10.2664 1 10.3754 1.03317 10.468 1.09528C10.5606 1.1574 10.6326 1.24566 10.6749 1.34882L12.7999 6.45982C12.8397 6.55546 12.9051 6.63827 12.9889 6.69914C13.0727 6.76001 13.1717 6.79658 13.2749 6.80482L18.7929 7.24682C19.2919 7.28682 19.4939 7.90982 19.1139 8.23482L14.9099 11.8368C14.8314 11.904 14.7729 11.9915 14.7408 12.0898C14.7087 12.188 14.7042 12.2932 14.7279 12.3938L16.0129 17.7788C16.0388 17.8869 16.032 18.0001 15.9935 18.1043C15.955 18.2085 15.8865 18.299 15.7966 18.3642C15.7067 18.4295 15.5995 18.4667 15.4885 18.4711C15.3775 18.4754 15.2677 18.4468 15.1729 18.3888L10.4479 15.5038C10.3597 15.45 10.2583 15.4216 10.1549 15.4216C10.0516 15.4216 9.9502 15.45 9.86194 15.5038L5.13694 18.3898C5.04219 18.4478 4.93239 18.4764 4.82139 18.4721C4.7104 18.4677 4.60319 18.4305 4.5133 18.3652C4.42342 18.3 4.3549 18.2095 4.31639 18.1053C4.27788 18.0011 4.27111 17.8879 4.29694 17.7798L5.58194 12.3938C5.60577 12.2932 5.60139 12.188 5.56928 12.0897C5.53717 11.9915 5.47857 11.9039 5.39994 11.8368L1.19594 8.23482C1.11175 8.16244 1.05085 8.06677 1.02089 7.95986C0.990924 7.85295 0.993244 7.73957 1.02755 7.63397C1.06186 7.52837 1.12662 7.43528 1.2137 7.36639C1.30078 7.29751 1.40628 7.25591 1.51694 7.24682L7.03494 6.80482C7.13819 6.79658 7.23716 6.76001 7.32096 6.69914C7.40477 6.63827 7.47016 6.55546 7.50994 6.45982L9.63494 1.34882Z" stroke="#FFB800" stroke-width="1.5" stroke-linecap="round" stroke-linejoin="round"/>
</svg>
