<svg width="22" height="19" viewBox="0 0 22 19" fill="none" xmlns="http://www.w3.org/2000/svg">
<path d="M1 15.25C6.33561 15.2457 11.648 15.9522 16.797 17.351C17.524 17.549 18.25 17.009 18.25 16.255V15.25M2.5 1V1.75C2.5 1.94891 2.42098 2.13968 2.28033 2.28033C2.13968 2.42098 1.94891 2.5 1.75 2.5H1M1 2.5V2.125C1 1.504 1.504 1 2.125 1H19M1 2.5V11.5M19 1V1.75C19 2.164 19.336 2.5 19.75 2.5H20.5M19 1H19.375C19.996 1 20.5 1.504 20.5 2.125V11.875C20.5 12.496 19.996 13 19.375 13H19M1 11.5V11.875C1 12.1734 1.11853 12.4595 1.3295 12.6705C1.54048 12.8815 1.82663 13 2.125 13H2.5M1 11.5H1.75C1.94891 11.5 2.13968 11.579 2.28033 11.7197C2.42098 11.8603 2.5 12.0511 2.5 12.25V13M19 13V12.25C19 12.0511 19.079 11.8603 19.2197 11.7197C19.3603 11.579 19.5511 11.5 19.75 11.5H20.5M19 13H2.5M13.75 7C13.75 7.79565 13.4339 8.55871 12.8713 9.12132C12.3087 9.68393 11.5456 10 10.75 10C9.95435 10 9.19129 9.68393 8.62868 9.12132C8.06607 8.55871 7.75 7.79565 7.75 7C7.75 6.20435 8.06607 5.44129 8.62868 4.87868C9.19129 4.31607 9.95435 4 10.75 4C11.5456 4 12.3087 4.31607 12.8713 4.87868C13.4339 5.44129 13.75 6.20435 13.75 7ZM16.75 7H16.758V7.008H16.75V7ZM4.75 7H4.758V7.008H4.75V7Z" stroke="#858585" stroke-width="2" stroke-linecap="round" stroke-linejoin="round"/>
</svg>
