<svg width="14" height="17" viewBox="0 0 14 17" fill="none" xmlns="http://www.w3.org/2000/svg">
<path d="M10.2308 7.34615V4.46154C10.2308 3.54348 9.86607 2.66303 9.21691 2.01386C8.56774 1.3647 7.68729 1 6.76923 1C5.85117 1 4.97072 1.3647 4.32155 2.01386C3.67239 2.66303 3.30769 3.54348 3.30769 4.46154V7.34615M2.73077 16H10.8077C11.2667 16 11.7069 15.8177 12.0315 15.4931C12.3561 15.1685 12.5385 14.7283 12.5385 14.2692V9.07692C12.5385 8.61789 12.3561 8.17767 12.0315 7.85308C11.7069 7.5285 11.2667 7.34615 10.8077 7.34615H2.73077C2.27174 7.34615 1.83151 7.5285 1.50693 7.85308C1.18235 8.17767 1 8.61789 1 9.07692V14.2692C1 14.7283 1.18235 15.1685 1.50693 15.4931C1.83151 15.8177 2.27174 16 2.73077 16Z" stroke="#606060" stroke-width="1.5" stroke-linecap="round" stroke-linejoin="round"/>
</svg>
