<svg width="17" height="17" viewBox="0 0 17 17" fill="none" xmlns="http://www.w3.org/2000/svg">
<path d="M15.375 10.2917V13.8333C15.375 14.745 14.7192 15.53 13.815 15.65C12.0759 15.8808 10.3017 16 8.50005 16C6.69838 16 4.92421 15.8808 3.18505 15.65C2.28088 15.53 1.62505 14.745 1.62505 13.8333V10.2917M15.375 10.2917C15.5729 10.1197 15.7312 9.90696 15.8391 9.66803C15.947 9.4291 16.0019 9.16965 16 8.9075V5.755C16 4.85417 15.36 4.07583 14.4692 3.9425C13.5253 3.80118 12.5766 3.69361 11.625 3.62M15.375 10.2917C15.2134 10.4292 15.025 10.5375 14.8142 10.6083C12.7777 11.284 10.6457 11.6273 8.50005 11.625C6.29338 11.625 4.17088 11.2675 2.18588 10.6083C1.98026 10.5399 1.78982 10.4324 1.62505 10.2917M1.62505 10.2917C1.42717 10.1197 1.26885 9.90696 1.16096 9.66803C1.05308 9.4291 0.998182 9.16965 1.00005 8.9075V5.755C1.00005 4.85417 1.64005 4.07583 2.53088 3.9425C3.47479 3.80118 4.42345 3.69361 5.37505 3.62M11.625 3.62V2.875C11.625 2.37772 11.4275 1.90081 11.0759 1.54917C10.7242 1.19754 10.2473 1 9.75005 1H7.25005C6.75277 1 6.27585 1.19754 5.92422 1.54917C5.57259 1.90081 5.37505 2.37772 5.37505 2.875V3.62M11.625 3.62C9.54481 3.45923 7.45528 3.45923 5.37505 3.62M8.50005 9.125H8.50671V9.13167H8.50005V9.125Z" stroke="#606060" stroke-width="1.5" stroke-linecap="round" stroke-linejoin="round"/>
</svg>
