<svg width="21" height="24" viewBox="0 0 19 22" fill="none" xmlns="http://www.w3.org/2000/svg">
<path d="M9.32973 21.8888C6.66905 21.8888 4.00777 21.8888 1.3459 21.8888C0.914396 21.8888 0.538394 21.8012 0.251915 21.4384C0.156345 21.319 0.0855858 21.1818 0.0437742 21.0347C0.00196251 20.8877 -0.0100592 20.7339 0.00841012 20.5821C0.124002 19.3735 0.506824 18.2056 1.12926 17.1626C2.08062 15.5195 3.5019 14.1976 5.21086 13.3664C6.91981 12.5351 8.83853 12.2325 10.7209 12.4972C13.498 12.9065 15.6627 14.2704 17.2759 16.5406C18.1014 17.7024 18.5544 19.0181 18.8086 20.4052C18.8464 20.5723 18.8477 20.7456 18.8124 20.9133C18.7771 21.081 18.7061 21.2391 18.6042 21.377C18.5023 21.5148 18.3719 21.6292 18.2218 21.7123C18.0717 21.7953 17.9054 21.8452 17.7343 21.8584C17.5709 21.8781 17.4065 21.887 17.2419 21.8852L9.32973 21.8888Z" fill="#EBEBEB"/>
<path d="M9.38359 10.4864C6.55281 10.4864 4.31649 8.18765 4.32007 5.30259C4.32007 2.5945 6.67815 0.297534 9.44447 0.311834C12.2412 0.322559 14.5008 2.63561 14.4865 5.49564C14.474 8.21625 12.1589 10.4864 9.38359 10.4864Z" fill="#EBEBEB"/>
</svg>
