<svg width="37" height="36" viewBox="0 0 37 36" fill="none" xmlns="http://www.w3.org/2000/svg">
<circle cx="18" cy="15" r="15" fill="white"/>
<rect width="26.5554" height="20.4272" rx="3" transform="matrix(-1 -0.000685714 -0.000685714 1 31.238 3.80029)" fill="#60C799"/>
<circle cx="5.61749" cy="5.61749" r="5.11749" transform="matrix(-1 -0.000685714 -0.000685714 1 23.0642 7.87988)" stroke="white"/>
<path d="M17 4L16.9993 27.9593" stroke="white"/>
<path d="M2.511 18.3062L2.52058 18.3063C9.56285 18.4414 15.6232 22.2511 18.0494 27.6872C20.7502 22.347 27 18.765 34.044 18.8979L34.0799 18.8985L34.1158 18.9018L34.1704 18.9068L35.0797 18.9895V19.9026V19.9466V19.9596L35.0794 19.9726C34.8728 27.9041 27.4544 33.9752 18.6438 34.2403M2.511 18.3062L18.6114 33.2408M2.511 18.3062H2.50141C2.39591 18.3062 2.29617 18.3098 2.21519 18.3127L2.21251 18.3128C2.12769 18.3159 2.06307 18.3183 1.99916 18.3186L1.00413 18.3235V19.3186V19.3321M2.511 18.3062L1.00413 19.3321M18.6438 34.2403C18.643 34.2403 18.6421 34.2404 18.6413 34.2404L18.6114 33.2408M18.6438 34.2403C18.6445 34.2403 18.6451 34.2403 18.6458 34.2402L18.6114 33.2408M18.6438 34.2403C18.6025 34.2418 18.5634 34.2443 18.5083 34.2479C18.4939 34.2489 18.4784 34.2499 18.4614 34.251C18.3872 34.2558 18.2894 34.2615 18.1833 34.2615C18.1308 34.2615 18.0785 34.2633 18.0059 34.2658C17.9942 34.2662 17.982 34.2666 17.9691 34.2671C17.8882 34.2698 17.7848 34.2729 17.6747 34.2707M18.6114 33.2408C18.5524 33.2429 18.4943 33.2467 18.4363 33.2505C18.3523 33.256 18.2687 33.2615 18.1833 33.2615C18.1122 33.2615 18.041 33.264 17.9695 33.2665C17.8753 33.2697 17.7808 33.273 17.686 33.2707M17.6747 34.2707H17.686V33.2707M17.6747 34.2707H17.6343H17.6231L17.6118 34.2704C17.3841 34.2653 17.139 34.2463 16.9305 34.2302C16.8456 34.2236 16.7668 34.2175 16.6976 34.213L16.6952 34.2129C7.90388 33.6183 0.802486 27.265 1.00413 19.3321M17.6747 34.2707C17.6702 34.2706 17.6657 34.2705 17.6612 34.2703L17.686 33.2707M17.686 33.2707L1.00413 19.3321M33.0962 19.9026H33.0797V19.9031C33.0852 19.903 33.0907 19.9028 33.0962 19.9026ZM3.00413 19.3224C2.97484 19.321 2.94553 19.3198 2.9162 19.3186H3.00413V19.3224ZM2.00796 20.089L2.0091 20.3186C2.01229 20.3186 2.01549 20.3185 2.01868 20.3185C2.01436 20.2422 2.01078 20.1657 2.00796 20.089Z" fill="#60C799" stroke="white" stroke-width="2"/>
</svg>
