<svg width="22" height="24" viewBox="0 0 21 23" fill="none" xmlns="http://www.w3.org/2000/svg">
<path d="M10.1902 8.77912C13.4597 8.77912 16.7303 8.77912 20.0021 8.77912C20.2868 8.77912 20.3817 8.83811 20.3799 9.14556C20.3656 12.0771 20.3799 15.0104 20.3692 17.942C20.3692 19.8582 19.4417 21.2006 17.7371 22.0193C17.2893 22.2299 16.7998 22.3374 16.3048 22.3339C13.7551 22.3339 11.2054 22.3339 8.65397 22.3339C7.22158 22.3339 5.78918 22.3339 4.35678 22.3339C2.51257 22.3339 1.21446 21.4401 0.385463 19.8492C0.109195 19.2615 -0.0204289 18.6156 0.00766811 17.967C0.00766811 15.014 0.00766811 12.0682 0.00766811 9.10624C0.00766811 8.82739 0.0954028 8.77197 0.355025 8.77197C3.63044 8.78151 6.90883 8.78389 10.1902 8.77912ZM16.9529 15.5932C16.9529 15.2178 16.9726 14.8406 16.9529 14.467C16.904 13.9471 16.6928 13.4557 16.349 13.0621C16.0053 12.6686 15.5463 12.3928 15.0371 12.2737C14.2081 12.095 13.3666 12.1504 12.5304 12.204C11.974 12.2332 11.4441 12.4508 11.0282 12.8209C10.6122 13.191 10.335 13.6915 10.2421 14.24C10.1052 15.1007 10.1015 15.9773 10.2314 16.8391C10.327 17.4105 10.6172 17.9316 11.053 18.3142C11.4888 18.6969 12.0435 18.9177 12.6235 18.9394C13.2681 18.9644 13.9144 18.9662 14.559 18.9394C15.0824 18.9079 15.5837 18.7174 15.9956 18.3934C16.4074 18.0695 16.7102 17.6275 16.8634 17.1268C17.0174 16.621 16.9386 16.1044 16.9529 15.5932Z" fill="#5E72E4"/>
<path d="M10.165 7.08999C6.90449 7.08999 3.644 7.08999 0.383505 7.08999C0.0898637 7.08999 0.0128706 7.01313 0.00391808 6.7164C-0.0247298 5.74041 0.0952354 4.80912 0.646708 3.97434C1.02523 3.36487 1.55484 2.8632 2.18434 2.51781C2.81385 2.17242 3.52197 1.995 4.24023 2.00271C4.50702 2.00271 4.83647 2.11532 5.02089 1.9473C5.20531 1.77927 5.06923 1.4593 5.07997 1.20547C5.07774 1.0928 5.09776 0.980787 5.13889 0.875835C5.18001 0.770883 5.24144 0.675046 5.31967 0.593796C5.39789 0.512545 5.49139 0.447473 5.5948 0.402294C5.69822 0.357114 5.80954 0.332713 5.9224 0.330483C6.03527 0.328253 6.14746 0.348238 6.25259 0.389297C6.35772 0.430355 6.45371 0.491684 6.5351 0.56978C6.61648 0.647877 6.68166 0.741213 6.72692 0.844458C6.77217 0.947703 6.79661 1.05884 6.79885 1.17151C6.80959 1.37574 6.80959 1.5804 6.79885 1.78463C6.79885 1.95087 6.85614 2.00986 7.02266 2.00807C7.47566 1.99913 7.92686 2.00807 8.37986 2.00807C9.9913 2.00807 11.6028 1.99913 13.2142 2.00807C13.524 2.00807 13.6117 1.91154 13.5723 1.62733C13.5589 1.45539 13.5589 1.28267 13.5723 1.11074C13.583 0.887568 13.6808 0.677458 13.8448 0.52543C14.0088 0.373402 14.2259 0.29155 14.4496 0.297414C14.6663 0.308425 14.8711 0.400033 15.0235 0.554201C15.1759 0.708369 15.265 0.913926 15.2733 1.1304C15.2912 1.41461 15.1372 1.79357 15.3467 1.95802C15.5257 2.09566 15.8838 2.00271 16.1614 2.0045C17.2768 2.01015 18.3448 2.45551 19.1329 3.24361C19.921 4.03171 20.3653 5.09873 20.369 6.21232C20.369 6.49832 20.4997 6.87728 20.3063 7.04173C20.113 7.20618 19.7692 7.09357 19.4953 7.09357L10.165 7.08999Z" fill="#5E72E4"/>
<path d="M13.5686 17.238C13.2785 17.238 12.9884 17.238 12.6984 17.238C12.5932 17.239 12.4888 17.2189 12.3915 17.1791C12.2942 17.1392 12.2058 17.0804 12.1316 17.0059C12.0573 16.9315 11.9988 16.843 11.9593 16.7456C11.9198 16.6483 11.9002 16.544 11.9016 16.439C11.8909 15.8491 11.8909 15.2574 11.9016 14.6676C11.9006 14.5623 11.9208 14.4579 11.961 14.3606C12.0012 14.2633 12.0605 14.175 12.1355 14.101C12.2104 14.027 12.2995 13.9688 12.3974 13.9297C12.4954 13.8907 12.6001 13.8717 12.7055 13.8739C13.2875 13.8632 13.8676 13.8739 14.4477 13.8739C14.5557 13.873 14.6629 13.8935 14.7629 13.9343C14.8629 13.975 14.9538 14.0353 15.0303 14.1115C15.1068 14.1877 15.1673 14.2783 15.2084 14.378C15.2495 14.4778 15.2702 14.5847 15.2695 14.6926C15.2803 15.2735 15.2821 15.8527 15.2695 16.4318C15.2688 16.5393 15.2468 16.6456 15.2046 16.7445C15.1624 16.8434 15.101 16.933 15.0239 17.008C14.9467 17.083 14.8555 17.1419 14.7553 17.1814C14.6552 17.2209 14.5482 17.2402 14.4405 17.238C14.1523 17.2434 13.8586 17.238 13.5686 17.238Z" fill="#5E72E4"/>
</svg>
