<svg width="34" height="31" viewBox="0 0 34 31" fill="none" xmlns="http://www.w3.org/2000/svg">
<g clip-path="url(#clip0_273_5)">
<path d="M30.0731 23.2794H30.0246C30.5242 22.1381 30.6399 20.8696 30.3548 19.6591C30.0697 18.4486 29.3987 17.3594 28.4396 16.5502C27.4806 15.7411 26.2837 15.2544 25.0236 15.1612C23.7634 15.068 22.506 15.3732 21.4346 16.0321C20.7098 14.29 19.3918 12.8497 17.7062 11.9576C16.0206 11.0654 14.0721 10.777 12.194 11.1415C10.316 11.506 8.62509 12.5009 7.41069 13.9559C6.19629 15.4109 5.53384 17.2357 5.53667 19.1179C5.53819 19.4504 5.56115 19.7824 5.60542 20.112H5.53667C4.80083 20.0982 4.06956 20.2288 3.38564 20.4961C2.70172 20.7634 2.07887 21.1621 1.5535 21.6689C1.02814 22.1757 0.610807 22.7804 0.325915 23.4476C0.0410233 24.1149 -0.105713 24.8313 -0.105713 25.5549C-0.105713 26.2786 0.0410233 26.995 0.325915 27.6622C0.610807 28.3295 1.02814 28.9342 1.5535 29.4409C2.07887 29.9477 2.70172 30.3464 3.38564 30.6138C4.06956 30.8811 4.80083 31.0116 5.53667 30.9978H30.0731C30.5962 31.0095 31.1164 30.9183 31.6031 30.7295C32.0898 30.5408 32.5332 30.2583 32.9073 29.8987C33.2815 29.5391 33.5787 29.1096 33.7817 28.6354C33.9847 28.1613 34.0892 27.652 34.0892 27.1376C34.0892 26.6232 33.9847 26.1139 33.7817 25.6398C33.5787 25.1656 33.2815 24.7361 32.9073 24.3765C32.5332 24.0169 32.0898 23.7344 31.6031 23.5457C31.1164 23.3569 30.5962 23.2657 30.0731 23.2774V23.2794Z" fill="white"/>
</g>
<circle cx="25" cy="9" r="5" fill="#F1C143"/>
<g clip-path="url(#clip1_273_5)">
<path d="M15.7193 20.4139C17.2152 20.4158 18.6874 20.0422 20 19.3274C18.4215 21.0209 16.3674 22.2013 14.1056 22.7148C11.8439 23.2283 9.47926 23.0512 7.32002 22.2064C5.16079 21.3616 3.30708 19.8884 2.00051 17.9788C0.693944 16.0692 -0.00488281 13.8117 -0.00488281 11.5007C-0.00488281 9.18964 0.693944 6.9322 2.00051 5.02259C3.30708 3.11298 5.16079 1.63978 7.32002 0.794996C9.47926 -0.0497838 11.8439 -0.226955 14.1056 0.286574C16.3674 0.800103 18.4215 1.98051 20 3.67395C18.803 3.02362 17.4727 2.6544 16.1106 2.5945C14.7485 2.53459 13.3907 2.78558 12.1408 3.3283C10.891 3.87102 9.78214 4.69111 8.89901 5.72594C8.01587 6.76078 7.3818 7.98299 7.04521 9.29924C6.70862 10.6155 6.67842 11.991 6.95691 13.3206C7.2354 14.6503 7.81521 15.8989 8.65207 16.9713C9.48894 18.0436 10.5607 18.9112 11.7856 19.5078C13.0104 20.1045 14.3559 20.4144 15.7193 20.4139Z" fill="#D8AF46"/>
</g>
<defs>
<clipPath id="clip0_273_5">
<rect width="34" height="20" fill="white" transform="translate(0 11)"/>
</clipPath>
<clipPath id="clip1_273_5">
<rect width="20" height="23" fill="white"/>
</clipPath>
</defs>
</svg>
