<svg width="14" height="14" viewBox="0 0 14 14" fill="none" xmlns="http://www.w3.org/2000/svg">
<path d="M6.60186 0.279499C6.6342 0.196834 6.68927 0.126117 6.76007 0.0763466C6.83086 0.0265758 6.91418 0 6.99943 0C7.08468 0 7.168 0.0265758 7.2388 0.0763466C7.30959 0.126117 7.36466 0.196834 7.397 0.279499L9.02167 4.37474C9.05209 4.45136 9.10208 4.51772 9.16615 4.56649C9.23023 4.61526 9.3059 4.64456 9.38484 4.65117L13.6036 5.00533C13.9852 5.03738 14.1396 5.53656 13.8491 5.79697L10.6349 8.68311C10.5748 8.73695 10.5301 8.80707 10.5055 8.88579C10.481 8.96452 10.4776 9.0488 10.4957 9.12941L11.4782 13.4442C11.4979 13.5308 11.4928 13.6215 11.4633 13.705C11.4339 13.7885 11.3815 13.861 11.3128 13.9133C11.244 13.9656 11.1621 13.9953 11.0772 13.9988C10.9923 14.0024 10.9084 13.9794 10.836 13.933L7.22345 11.6213C7.15596 11.5782 7.07846 11.5554 6.99943 11.5554C6.9204 11.5554 6.8429 11.5782 6.77542 11.6213L3.16291 13.9338C3.09047 13.9802 3.00652 14.0032 2.92166 13.9997C2.83679 13.9961 2.75483 13.9664 2.68611 13.9141C2.61739 13.8618 2.565 13.7893 2.53555 13.7058C2.50611 13.6223 2.50094 13.5316 2.52068 13.445L3.50313 9.12941C3.52135 9.0488 3.518 8.96449 3.49345 8.88575C3.4689 8.80701 3.4241 8.73689 3.36398 8.68311L0.149803 5.79697C0.0854382 5.73897 0.0388745 5.66232 0.0159679 5.57665C-0.00693873 5.49099 -0.00516539 5.40014 0.0210649 5.31553C0.0472952 5.23092 0.0968112 5.15633 0.163386 5.10113C0.229961 5.04594 0.310622 5.01261 0.395225 5.00533L4.61403 4.65117C4.69297 4.64456 4.76864 4.61526 4.83271 4.56649C4.89678 4.51772 4.94678 4.45136 4.97719 4.37474L6.60186 0.279499Z" fill="#FFB800"/>
</svg>
