
<svg width="14" height="14" viewBox="0 0 12 12" fill="none" xmlns="http://www.w3.org/2000/svg">
<path d="M5.875 2.625V5.875H8.3125M10.75 5.875C10.75 6.51519 10.6239 7.14912 10.3789 7.74058C10.1339 8.33204 9.77483 8.86946 9.32215 9.32215C8.86946 9.77483 8.33204 10.1339 7.74058 10.3789C7.14912 10.6239 6.51519 10.75 5.875 10.75C5.23481 10.75 4.60088 10.6239 4.00942 10.3789C3.41796 10.1339 2.88054 9.77483 2.42785 9.32215C1.97517 8.86946 1.61608 8.33204 1.37109 7.74058C1.1261 7.14912 1 6.51519 1 5.875C1 4.58207 1.51361 3.34209 2.42785 2.42785C3.34209 1.51361 4.58207 1 5.875 1C7.16793 1 8.40791 1.51361 9.32215 2.42785C10.2364 3.34209 10.75 4.58207 10.75 5.875Z" stroke="#FFFFFF" stroke-width="1.5" stroke-linecap="round" stroke-linejoin="round"/>
</svg>
