<svg width="20" height="16" viewBox="0 0 20 16" fill="none" xmlns="http://www.w3.org/2000/svg">
<path d="M1.04651 8.02881C0.984497 7.84244 0.984497 7.64099 1.04651 7.45461C2.29286 3.70477 5.83063 1 10.0001 1C14.1678 1 17.7038 3.70208 18.9528 7.45012C19.0157 7.63613 19.0157 7.83741 18.9528 8.02432C17.7074 11.7742 14.1696 14.4789 10.0001 14.4789C5.83243 14.4789 2.29556 11.7769 1.04651 8.02881Z" stroke="#606060" stroke-width="1.5" stroke-linecap="round" stroke-linejoin="round"/>
<path d="M12.6958 7.73924C12.6958 8.45421 12.4118 9.1399 11.9062 9.64545C11.4006 10.151 10.715 10.435 9.99999 10.435C9.28502 10.435 8.59933 10.151 8.09378 9.64545C7.58822 9.1399 7.3042 8.45421 7.3042 7.73924C7.3042 7.02428 7.58822 6.33859 8.09378 5.83303C8.59933 5.32748 9.28502 5.04346 9.99999 5.04346C10.715 5.04346 11.4006 5.32748 11.9062 5.83303C12.4118 6.33859 12.6958 7.02428 12.6958 7.73924Z" stroke="#606060" stroke-width="1.5" stroke-linecap="round" stroke-linejoin="round"/>
</svg>
