<svg width="14" height="17" viewBox="0 0 14 17" fill="none" xmlns="http://www.w3.org/2000/svg">
<path d="M9.65307 3.88461C9.65307 4.64966 9.34916 5.38337 8.80819 5.92434C8.26722 6.46531 7.5335 6.76923 6.76846 6.76923C6.00341 6.76923 5.2697 6.46531 4.72873 5.92434C4.18776 5.38337 3.88384 4.64966 3.88384 3.88461C3.88384 3.11957 4.18776 2.38585 4.72873 1.84488C5.2697 1.30391 6.00341 1 6.76846 1C7.5335 1 8.26722 1.30391 8.80819 1.84488C9.34916 2.38585 9.65307 3.11957 9.65307 3.88461ZM1 14.7446C1.02472 13.231 1.64334 11.7878 2.72244 10.7262C3.80155 9.66455 5.25468 9.06958 6.76846 9.06958C8.28223 9.06958 9.73537 9.66455 10.8145 10.7262C11.8936 11.7878 12.5122 13.231 12.5369 14.7446C10.7272 15.5744 8.75934 16.0027 6.76846 16C4.71 16 2.75615 15.5508 1 14.7446Z" stroke="#606060" stroke-width="1.5" stroke-linecap="round" stroke-linejoin="round"/>
</svg>
