<svg width="28" height="23" viewBox="0 0 28 23" fill="none" xmlns="http://www.w3.org/2000/svg">
<path d="M2.37123 9.11465C5.38998 6.14082 9.48498 4.3125 14 4.3125C18.515 4.3125 22.61 6.14082 25.6287 9.11465C26.1887 9.66269 27.0725 9.64473 27.6062 9.07422C28.14 8.50371 28.1225 7.5918 27.5668 7.04375C24.0493 3.57129 19.2675 1.4375 14 1.4375C8.73248 1.4375 3.9506 3.57129 0.428726 7.03926C-0.126899 7.5918 -0.144399 8.49922 0.389351 9.07422C0.923101 9.64922 1.81123 9.66719 2.36685 9.11465H2.37123ZM14 11.5C16.485 11.5 18.7512 12.4479 20.4837 14.0156C21.0656 14.5412 21.9494 14.4828 22.4612 13.8898C22.9731 13.2969 22.9162 12.385 22.3387 11.8594C20.1162 9.84688 17.1937 8.625 14 8.625C10.8062 8.625 7.88373 9.84688 5.6656 11.8594C5.08373 12.385 5.03123 13.2924 5.5431 13.8898C6.05498 14.4873 6.93873 14.5412 7.5206 14.0156C9.24873 12.4479 11.515 11.5 14.0044 11.5H14ZM16.8 18.6875C16.8 17.925 16.505 17.1937 15.9799 16.6546C15.4548 16.1154 14.7426 15.8125 14 15.8125C13.2574 15.8125 12.5452 16.1154 12.0201 16.6546C11.495 17.1937 11.2 17.925 11.2 18.6875C11.2 19.45 11.495 20.1813 12.0201 20.7204C12.5452 21.2596 13.2574 21.5625 14 21.5625C14.7426 21.5625 15.4548 21.2596 15.9799 20.7204C16.505 20.1813 16.8 19.45 16.8 18.6875Z" fill="#F7C137"/>
</svg>
